<?xml version="1.0" encoding="UTF-8"?>
<svg xmlns="http://www.w3.org/2000/svg" viewBox="0 0 2000 2000">
  <defs>
    <style>
      .cls-2 { fill: #F1ECE8; }
    </style>
  </defs>
  <path class="cls-2" d="M1379.21,451.1c1.48-36.95-22.79-73.23-63.06-47.42-169.63,145.38-134.89,343.51-355.48,506.95-104.15,79.64-241.64,174.06-380.56,133.71-62.63-21.49-76.3-77.8-55.21-132.79.56-3.6,1.73-8.05-1.66-10.19-19.45-.23-87.88,34.18-78.85,54.91,110.94,280.96,433.8,52.02,590.65-93.09,10.74-8.22,22.24-18.18,19.74-6.56-69.5,179.57-178.4,447.68-251.75,633.25-9.1,23.48-19.57,41.26,3.58,32.3,21.36-8.28,64.9-27.95,73.59-56.88,84.16-237.57,158.52-571.73,331.32-755.77,62.47-72.77,157.16-160,167.72-258.42ZM1176.05,715.5c-39.68,14.41,117.89-286.22,180.06-266.73,30.3,17.22-93.82,188.97-180.06,266.73Z"/>
</svg>
