<?xml version="1.0" encoding="UTF-8"?>
<svg xmlns="http://www.w3.org/2000/svg" viewBox="0 0 2976.37 1326.81">
  <defs>
    <style>
      .cls-2 { fill: #8E3833; }
    </style>
  </defs>
  <g id="LOGOTIPOS">
    <g>
      <path class="cls-2" d="M2510.76,747.02c-16.38-6.44-61.36-13.14-63.09-12.83-77-5.03-54.66,7.02-122.66-6.19-16.57-5.64-32.53-7.67-46.01-14.79-.06-.03-.11-.06-.17-.08-1.67-.98-3.26-1.92-4.8-2.87-.06-.03-.11-.06-.17-.11-8.71-5.41-15.46-10.88-20.56-16.3-36.91-39.12,10.44-76.9,13.28-91.3.08-.36.08-.73.03-1.12-5.94-45.79-120.93,43.03-131.37,42.08-4.21.03-12-9.79-.81-23.24,10.8-12.95,10.52-16.02,10.44-23.16,0-.53-.11-1.09-.36-1.56-20.79-42.05-100.81,12.83-141.83,40.65-.17.06-.33.14-.5.22,3.38-3.1-62.53,39.26-72.66,22.32-.33-.53-.45-1.17-.42-1.79,1.73-51.76,44.5-64.4,36.16-83.71-1.45-6.31-8.48-6.98-13.42-6.95-12.78-.39-15.12,11.66-20.93,11.36-1.31-.08-2.4-1.09-2.79-2.34-1.76-5.33-3.21-10.27-6.61-16.13-.42-.75-1.14-1.34-1.98-1.59-17.05-5.11-28.07,3.43-53.43,16.13-.06.03-.11.06-.17.08-25.39,14.51-64.48,36.52-83.71,63.76-46.88,24.22-148.55,60.69-169.67,34.4-.64-.84-.89-1.98-.56-2.96,4.85-14.01,64.71-33.34,74.81-40.15,37.75-24.75,86.05-46.76,86.11-92.22,0-.28-.03-.56-.08-.84-6.08-30.11-65.79-11.72-89.32.86-34.74,18.36-80.36,59.46-99.17,100.73-31.31,18.75-111.3,58.51-114.09,43.95-.03-3.52,2.79-7.76,5.58-12,11.58-18.5,26.54-34.82,29.91-54.69.06-.25.08-.5.06-.75-.28-18.86-14.26-37.58-14.29-43.89.64-11.72-7.98-37.89-28.49-24.81-.31.19-.61.45-.86.75-13.39,16.16-20.4,46.32-35.94,60.3-5.89,7.03-27.12,24.97-41.1,36.13-17.94,10.94-37.61,30.5-41.74-5.13-.03-.22-.06-.42-.03-.64.56-11.1,34.15-57.59,34.15-62.5-.03-8.45-7.78-9.82-14.12-9.79-24.64.14-32.23,33.26-41.27,50.2-17.44,31.75-61.58,74.92-100.31,75.11-8.43.06-12.7-9.79-12.72-16.82-4.32-47.85,78.49-86.33,48.19-112.28-.95-.81-2.23-1.12-3.4-.73-24.78,8.87-59.54,52.6-71.07,88.56-4.02,2.04-8.45,3.49-13.95,3.52-16.21.08-27.51-11.11-27.6-27.32-.11-21.82,40.57-49.47,40.49-64.26-.03-7.73-9.88-7.67-15.51-7.64-11.97.06-22.46,14.17-36.52,14.26-9.15.03-12.03-11.22-31.03-11.1-29.27-3.46-125.78,87.53-131,111.44-.06.28-.08.59-.06.89.42,26.31,25.59,28.96,46.6,28.85,42.94-.2,61.72-43.22,88.48-43.36,4.13-.03,6.25,2.65,8.99,5.39.11.14.25.25.36.33,8.71,6.92,35.85,10.94,47.04,10.88,4.07-.03,12-3.1,20.31-7.48-.67,5.11-.7,9.91.08,14.2.03.14.06.28.06.42.14,15.4,6.56,30.02,24.08,29.94,23.94-.11,85.05-24.36,101.84-40.63,4.91-4.97,11.89-19.08,18.92-19.11,4.24-.03,4.97,4.21,4.97,7.73-6.22,43.78,23.55,20.45,43.7,6.81,1.56-.95,7.14-4.13,12.86-7.62,9.46-4.69,25.7-16.74,36.22-25.7,16.21-13.92,40.04-42.61,50.36-15.04.17.45.25.95.22,1.4-1.09,12.5-30.22,60.41-43.92,81.17-6.98,10.6,2.26,25.34,26.17,25.22-1.95,4.8,81.17-38.64,123.02-66.38-1.09,4.3-1.81,8.57-2.15,12.75-.06.59.08,1.23.34,1.79,9.07,19.14,17.05,32.09,44.64,31.98.11,0,.22,0,.33.03,43.56,5.44,114.29-25.87,152.63-48.36-2.09,5.61-3.15,11.44-3.01,17.41,0,.42.06.81.2,1.17,4.88,13.53,34.07,18.89,44.7,18.92.19,0,.33,0,.53-.03,15.4-1.92,61.61-32.31,78.1-50.11.14-.17.31-.31.47-.42,25.5-18.72,1.76,21.62,6.78,35.6.11.31.28.59.47.86,1.9,2.51,8.71,9.6,13.34,10.05.33.03.67,0,.98-.06,25.59-5.02,57.76-17.86,84.01-38.81,28.26-13.98,76.9-42.22,88.98-38.7,6.33-.03,11.3,3.46,11.33,13.31,0,3.54-12.61,9.93-12.61,12.03,2.82.7-41.32,41.74-41.27,49.5.08,17.02,8.65,15.54,13.64,15.4.33,0,.67-.06.98-.14,28.21-8.87,100.28-57.06,132.93-70.93,4.91-.03,2.12,2.12,4.21,2.79.06,7.76-10.46,14.15-10.43,21.88.03,3.93,1.67,8.23,4.55,12.67-.14-.03-.25-.06-.39-.08.39.42.78.84,1.17,1.26,13.73,20.01,50.92,42.75,73.52,49.22l.31-.03c36.41,15.18,77.88,23.66,119.34,28.43-158.57,25.56-301.23,10.94-461.25,24.56-284.38,24.19-586.61,8.28-867.89,58.84.98,0,8.98,3.24,9.57,3.52,18.5,3.88,38.9,14.29,57.93,13.78,461.76-82.93,933.71-11.72,1395.44-94.67-1,0-9.63-3.49-9.63-3.54ZM1624.14,626.37c96.88-127.21,204.5-76.9,10.58,5.58-17.55,7.11-10.58-5.58-10.58-5.58ZM1012.6,659.02c0-3.93.59-7.87,1.79-11.8.17-.59.5-1.12.95-1.53,8.71-8.12,77.79-72.41,86.97-67.38,58.34.5-86.64,130.5-89.71,80.72ZM1907.12,602.82c-.08.2-.19.39-.31.59-11.64,18.67-19.5,21.32-44.42,39.15-.17.14-.36.25-.56.33-12.44,5.52-40.74,26.45-51.23,16.94-.92-.84-1.28-2.12-1-3.35,3.13-14.09,43.47-45.98,61.39-55.25.06-.03.11-.06.17-.11,16.57-10.3,46.57-24.08,35.97,1.7Z"/>
      <path class="cls-2" d="M1145.05,308.22c1.07-26.73-16.49-52.99-45.63-34.31-122.74,105.2-96.21,268.37-255.69,359.59-75.36,57.63-176.37,133.17-276.89,103.98-23.17-7.91-44.04-27.4-46.59-52.78-2.26-14.94,4.62-34.79,6.64-43.3.41-2.61,1.26-5.82-1.2-7.38-22.93.2-62.9,18.06-56.28,48.44,3.86,19.89,14.92,39.43,31.82,52.19,137.46,69.98,290.28-42.74,394.79-128.25,7.76-5.95,16.08-13.16,14.27-4.75-50.29,129.93-129.08,323.92-182.16,458.2-6.58,16.99-14.16,29.86,2.59,23.37,15.46-5.99,46.96-20.23,53.24-41.15,60.9-171.9,114.7-413.68,239.73-546.85,45.2-52.65,113.72-115.77,121.35-186.98ZM998.06,499.54c-28.71,10.43,85.3-207.1,130.28-192.99,21.93,12.46-67.89,136.74-130.28,192.99Z"/>
    </g>
  </g>
</svg>
