<?xml version="1.0" encoding="UTF-8"?>
<svg xmlns="http://www.w3.org/2000/svg" viewBox="0 0 3335.1 1932.22">
  <defs>
    <style>
      .cls-1 {
        fill: #531f23;
      }

      .cls-2 {
        fill: #faf7f5;
      }
    </style>
  </defs>
  <g id="FONDO">
    <rect class="cls-1" x="-29.67" y="-7.72" width="3398.17" height="1992.56"/>
  </g>
  <g id="LOGOTIPOS">
    <g>
      <g>
        <g>
          <g>
            <g>
              <path class="cls-2" d="M1078.66,911.84c-.57-.45-1.36-.6-2.03-.33-4.74,1.81-8.21,4.98-12.39,7.1-2.48,1.26-5.22,2.15-8.62,2.17-10.01.05-17-6.86-17.05-16.88-.07-13.48,25.06-30.56,25.01-39.7-.02-4.77-6.1-4.74-9.58-4.72-7.39.03-13.88,8.76-22.56,8.81-5.65.02-7.43-6.93-19.17-6.86-18.08-2.14-77.71,54.07-80.93,68.85-.03.17-.05.36-.03.55.26,16.26,15.81,17.89,28.79,17.82,26.53-.12,38.13-26.7,54.66-26.79,2.55-.02,3.86,1.64,5.55,3.33.07.09.16.16.22.21,5.38,4.27,22.15,6.76,29.06,6.72,2.52-.02,7.41-1.91,12.55-4.62,7.1-3.74,14.69-9.02,17.08-12.96.19-.31.28-.67.28-1.02,0-.64-.29-1.26-.83-1.69ZM959.09,925.2c0-2.43.36-4.86,1.1-7.29.1-.36.31-.69.59-.95,5.38-5.02,48.06-44.73,53.73-41.63,36.04.31-53.52,80.62-55.42,49.87Z"/>
              <path class="cls-2" d="M1198.43,913.56c-.19-1.28-1.45-2.1-2.69-1.76-2.07.6-4.27,1.74-6.52,3.12-11.08,6.76-23.24,18.84-25.79-3.17-.02-.14-.03-.26-.02-.4.34-6.86,21.1-35.58,21.1-38.61-.02-5.22-4.81-6.07-8.72-6.05-15.22.09-19.91,20.55-25.49,31.01-10.77,19.62-38.04,46.28-61.97,46.4-5.21.03-7.84-6.05-7.86-10.39-2.67-29.56,48.49-53.33,29.77-69.36-.59-.5-1.38-.69-2.1-.45-15.31,5.48-36.78,32.49-43.9,54.71-1,3.09-1.71,6.07-2.1,8.89-.41,3.15-.43,6.12.05,8.77.02.09.03.17.03.26.09,9.52,4.05,18.55,14.88,18.5,14.79-.07,52.54-15.05,62.92-25.1,3.03-3.07,7.34-11.79,11.69-11.81,2.62-.02,3.07,2.6,3.07,4.77-3.84,27.05,14.55,12.64,26.99,4.21.97-.59,4.41-2.55,7.95-4.71,4.4-2.71,8.95-5.71,8.95-6.69,0-.64-.12-1.4-.22-2.15Z"/>
              <path class="cls-2" d="M1315.92,909.77c-.26.05-.52.16-.74.29-.86.55-1.83,1.14-2.88,1.78-19.34,11.58-68.76,36.15-70.48,27.15-.02-2.17,1.72-4.79,3.45-7.41,7.15-11.43,16.39-21.51,18.48-33.79.03-.16.05-.31.03-.47-.17-11.65-8.81-23.22-8.83-27.11.4-7.24-4.93-23.41-17.6-15.32-.19.12-.38.28-.53.47-8.27,9.98-12.6,28.61-22.2,37.25-3.64,4.34-16.75,15.43-25.39,22.32-2.36,1.88-4.38,3.45-5.77,4.48-.29.21-.52.48-.67.81-1.4,3.03-.41,3.41,3.31,3.4.81,0,2.07-.45,3.62-1.21,5.84-2.9,15.88-10.34,22.37-15.88,10.01-8.6,24.74-26.32,31.11-9.29.1.28.16.59.14.86-.67,7.72-18.67,37.32-27.13,50.14-4.31,6.55,1.4,15.65,16.17,15.58-1.21,2.96,50.14-23.87,76-41.01,13.86-9.17,20.39-15.57,7.55-13.05Z"/>
              <path class="cls-2" d="M1439.19,909.53c-.14.03-.29.1-.41.17-1.31.72-2.72,1.48-4.22,2.24-28.96,14.96-91.77,37.49-104.82,21.25-.4-.52-.55-1.22-.34-1.83,3-8.65,39.97-20.6,46.21-24.8,23.32-15.29,53.16-28.89,53.19-56.97,0-.17-.02-.34-.05-.52-3.76-18.6-40.65-7.24-55.18.53-21.46,11.34-49.64,36.73-61.26,62.23-1.69,3.67-3.02,7.34-3.93,10.98-.67,2.65-1.12,5.29-1.33,7.88-.03.36.05.76.21,1.1,5.6,11.83,10.53,19.82,27.58,19.75.07,0,.14,0,.21.02,26.91,3.36,70.6-15.98,94.29-29.87,15.76-9.22,22.65-16.05,9.86-12.17ZM1336.88,905.03c59.85-78.59,126.33-47.51,6.53,3.45-10.84,4.4-6.53-3.45-6.53-3.45Z"/>
              <path class="cls-2" d="M1570.74,911.1c-.1.03-.21.09-.31.14,2.09-1.91-38.63,24.25-44.89,13.79-.21-.33-.28-.72-.26-1.1,1.07-31.98,27.49-39.78,22.34-51.71-.9-3.9-5.24-4.31-8.29-4.29-7.89-.24-9.34,7.21-12.93,7.02-.81-.05-1.48-.67-1.72-1.45-1.09-3.29-1.98-6.34-4.09-9.96-.26-.47-.71-.83-1.22-.98-10.53-3.15-17.34,2.12-33.01,9.96-.03.02-.07.03-.1.05-15.69,8.96-39.84,22.56-51.71,39.39-2.21,3.14-4,6.4-5.22,9.76-1.29,3.46-1.95,7.07-1.86,10.76,0,.26.03.5.12.72,3.02,8.36,21.05,11.67,27.61,11.69.12,0,.21,0,.33-.02,9.52-1.19,38.06-19.96,48.25-30.96.09-.1.19-.19.29-.26,15.76-11.57,1.09,13.36,4.19,22,.07.19.17.36.29.53,1.17,1.55,5.38,5.93,8.24,6.21.21.02.41,0,.6-.03,15.81-3.1,35.68-11.03,51.9-23.98,1.12-.9,2.24-1.83,3.33-2.78,2.95-2.98,1.78-5.93-1.88-4.48ZM1511.71,890.48c-.05.12-.12.24-.19.36-7.19,11.53-12.05,13.17-27.44,24.18-.1.09-.22.16-.34.21-7.69,3.41-25.17,16.34-31.65,10.46-.57-.52-.79-1.31-.62-2.07,1.93-8.7,26.86-28.41,37.92-34.13.03-.02.07-.03.1-.07,10.24-6.36,28.77-14.88,22.22,1.05Z"/>
              <path class="cls-2" d="M1741.45,958.67s-.07-.03-.1-.05c-1.03-.6-2.02-1.19-2.97-1.78-.03-.02-.07-.03-.1-.07-5.38-3.34-9.55-6.72-12.7-10.07-22.81-24.17,6.45-47.51,8.21-56.4.05-.22.05-.45.02-.69-3.67-28.29-74.71,26.58-81.15,25.99-2.6.02-7.41-6.05-.5-14.36,6.67-8,6.5-9.89,6.45-14.31,0-.33-.07-.67-.22-.97-12.84-25.98-62.28,7.93-87.62,25.12-5.21,3.55-9.41,6.38-12.05,7.83-.28.14-.5.34-.69.57-4.36,5.77,1.48,3.71,11.29-1.14,17.46-8.64,47.51-26.08,54.97-23.91,3.91-.02,6.98,2.14,7,8.22,0,2.19-7.79,6.14-7.79,7.43,1.74.43-25.53,25.79-25.49,30.58.05,10.51,5.34,9.6,8.43,9.52.21,0,.41-.03.6-.09,17.43-5.48,61.95-35.25,82.12-43.82,3.03-.02,1.31,1.31,2.6,1.72.03,4.79-6.46,8.74-6.45,13.51.02,2.43,1.03,5.09,2.81,7.83.16.24.31.48.48.72,8.48,12.36,31.46,26.41,45.42,30.41l.19-.02,9.1-.76c-.62-.34-1.24-.69-1.84-1.03Z"/>
            </g>
            <path class="cls-2" d="M1026.16,590.96c-114.44,98.08-89.7,250.22-238.39,335.27-70.26,53.73-164.45,124.16-258.17,96.94-21.6-7.38-41.06-25.55-43.44-49.21-2.1-13.93,4.31-32.44,6.19-40.37.38-2.43,1.17-5.43-1.12-6.88-21.37.19-58.64,16.84-52.47,45.16,3.6,18.55,13.91,36.77,29.67,48.66,128.16,65.24,270.65-39.85,368.09-119.58,7.24-5.55,15-12.27,13.31-4.43-46.89,121.15-120.35,302.02-169.84,427.21-6.14,15.84-13.2,27.84,2.41,21.79,14.41-5.58,43.78-18.86,49.64-38.37,56.78-160.27,106.94-385.71,223.52-509.87,42.15-49.09,106.03-107.94,113.15-174.34,1-24.93-15.38-49.4-42.54-31.99ZM931.65,801.33c-26.77,9.72,79.53-193.09,121.47-179.94,20.44,11.62-63.3,127.49-121.47,179.94Z"/>
          </g>
          <path class="cls-2" d="M1890.57,981.75c-285.25,51.25-576.81,7.26-862.07,58.49-11.76.31-24.36-6.12-35.78-8.52-.36-.17-5.31-2.17-5.91-2.17,173.77-31.23,360.48-21.41,536.16-36.35,98.86-8.41,186.99.62,284.95-15.17-25.61-2.95-51.23-8.19-73.72-17.57-17.6-7.33-33.29-17.15-45.61-30.39-.24-.26-.48-.52-.72-.78.09.02.16.03.24.05,12.27,2.29,25.46,11.69,37.47,17.36,3.15,3.34,7.33,6.72,12.7,10.07.03.03.07.05.1.07.97.66,1.95,1.24,2.97,1.78.03.02.07.03.1.05,8.33,4.4,18.19,5.65,28.42,9.14,42.01,8.16,28.21.72,75.78,3.83,1.07-.19,28.86,3.95,38.97,7.93,0,.03,5.33,2.19,5.95,2.19Z"/>
        </g>
        <g>
          <g>
            <path class="cls-2" d="M1078.66,911.84c-.57-.45-1.36-.6-2.03-.33-4.74,1.81-8.21,4.98-12.39,7.1-2.48,1.26-5.22,2.15-8.62,2.17-10.01.05-17-6.86-17.05-16.88-.07-13.48,25.06-30.56,25.01-39.7-.02-4.77-6.1-4.74-9.58-4.72-7.39.03-13.88,8.76-22.56,8.81-5.65.02-7.43-6.93-19.17-6.86-18.08-2.14-77.71,54.07-80.93,68.85-.03.17-.05.36-.03.55.26,16.26,15.81,17.89,28.79,17.82,26.53-.12,38.13-26.7,54.66-26.79,2.55-.02,3.86,1.64,5.55,3.33.07.09.16.16.22.21,5.38,4.27,22.15,6.76,29.06,6.72,2.52-.02,7.41-1.91,12.55-4.62,7.1-3.74,14.69-9.02,17.08-12.96.19-.31.28-.67.28-1.02,0-.64-.29-1.26-.83-1.69ZM959.09,925.2c0-2.43.36-4.86,1.1-7.29.1-.36.31-.69.59-.95,5.38-5.02,48.06-44.73,53.73-41.63,36.04.31-53.52,80.62-55.42,49.87Z"/>
            <path class="cls-2" d="M1198.43,913.56c-.19-1.28-1.45-2.1-2.69-1.76-2.07.6-4.27,1.74-6.52,3.12-11.08,6.76-23.24,18.84-25.79-3.17-.02-.14-.03-.26-.02-.4.34-6.86,21.1-35.58,21.1-38.61-.02-5.22-4.81-6.07-8.72-6.05-15.22.09-19.91,20.55-25.49,31.01-10.77,19.62-38.04,46.28-61.97,46.4-5.21.03-7.84-6.05-7.86-10.39-2.67-29.56,48.49-53.33,29.77-69.36-.59-.5-1.38-.69-2.1-.45-15.31,5.48-36.78,32.49-43.9,54.71-1,3.09-1.71,6.07-2.1,8.89-.41,3.15-.43,6.12.05,8.77.02.09.03.17.03.26.09,9.52,4.05,18.55,14.88,18.5,14.79-.07,52.54-15.05,62.92-25.1,3.03-3.07,7.34-11.79,11.69-11.81,2.62-.02,3.07,2.6,3.07,4.77-3.84,27.05,14.55,12.64,26.99,4.21.97-.59,4.41-2.55,7.95-4.71,4.4-2.71,8.95-5.71,8.95-6.69,0-.64-.12-1.4-.22-2.15Z"/>
            <path class="cls-2" d="M1315.92,909.77c-.26.05-.52.16-.74.29-.86.55-1.83,1.14-2.88,1.78-19.34,11.58-68.76,36.15-70.48,27.15-.02-2.17,1.72-4.79,3.45-7.41,7.15-11.43,16.39-21.51,18.48-33.79.03-.16.05-.31.03-.47-.17-11.65-8.81-23.22-8.83-27.11.4-7.24-4.93-23.41-17.6-15.32-.19.12-.38.28-.53.47-8.27,9.98-12.6,28.61-22.2,37.25-3.64,4.34-16.75,15.43-25.39,22.32-2.36,1.88-4.38,3.45-5.77,4.48-.29.21-.52.48-.67.81-1.4,3.03-.41,3.41,3.31,3.4.81,0,2.07-.45,3.62-1.21,5.84-2.9,15.88-10.34,22.37-15.88,10.01-8.6,24.74-26.32,31.11-9.29.1.28.16.59.14.86-.67,7.72-18.67,37.32-27.13,50.14-4.31,6.55,1.4,15.65,16.17,15.58-1.21,2.96,50.14-23.87,76-41.01,13.86-9.17,20.39-15.57,7.55-13.05Z"/>
            <path class="cls-2" d="M1439.19,909.53c-.14.03-.29.1-.41.17-1.31.72-2.72,1.48-4.22,2.24-28.96,14.96-91.77,37.49-104.82,21.25-.4-.52-.55-1.22-.34-1.83,3-8.65,39.97-20.6,46.21-24.8,23.32-15.29,53.16-28.89,53.19-56.97,0-.17-.02-.34-.05-.52-3.76-18.6-40.65-7.24-55.18.53-21.46,11.34-49.64,36.73-61.26,62.23-1.69,3.67-3.02,7.34-3.93,10.98-.67,2.65-1.12,5.29-1.33,7.88-.03.36.05.76.21,1.1,5.6,11.83,10.53,19.82,27.58,19.75.07,0,.14,0,.21.02,26.91,3.36,70.6-15.98,94.29-29.87,15.76-9.22,22.65-16.05,9.86-12.17ZM1336.88,905.03c59.85-78.59,126.33-47.51,6.53,3.45-10.84,4.4-6.53-3.45-6.53-3.45Z"/>
            <path class="cls-2" d="M1570.74,911.1c-.1.03-.21.09-.31.14,2.09-1.91-38.63,24.25-44.89,13.79-.21-.33-.28-.72-.26-1.1,1.07-31.98,27.49-39.78,22.34-51.71-.9-3.9-5.24-4.31-8.29-4.29-7.89-.24-9.34,7.21-12.93,7.02-.81-.05-1.48-.67-1.72-1.45-1.09-3.29-1.98-6.34-4.09-9.96-.26-.47-.71-.83-1.22-.98-10.53-3.15-17.34,2.12-33.01,9.96-.03.02-.07.03-.1.05-15.69,8.96-39.84,22.56-51.71,39.39-2.21,3.14-4,6.4-5.22,9.76-1.29,3.46-1.95,7.07-1.86,10.76,0,.26.03.5.12.72,3.02,8.36,21.05,11.67,27.61,11.69.12,0,.21,0,.33-.02,9.52-1.19,38.06-19.96,48.25-30.96.09-.1.19-.19.29-.26,15.76-11.57,1.09,13.36,4.19,22,.07.19.17.36.29.53,1.17,1.55,5.38,5.93,8.24,6.21.21.02.41,0,.6-.03,15.81-3.1,35.68-11.03,51.9-23.98,1.12-.9,2.24-1.83,3.33-2.78,2.95-2.98,1.78-5.93-1.88-4.48ZM1511.71,890.48c-.05.12-.12.24-.19.36-7.19,11.53-12.05,13.17-27.44,24.18-.1.09-.22.16-.34.21-7.69,3.41-25.17,16.34-31.65,10.46-.57-.52-.79-1.31-.62-2.07,1.93-8.7,26.86-28.41,37.92-34.13.03-.02.07-.03.1-.07,10.24-6.36,28.77-14.88,22.22,1.05Z"/>
            <path class="cls-2" d="M1741.45,958.67s-.07-.03-.1-.05c-1.03-.6-2.02-1.19-2.97-1.78-.03-.02-.07-.03-.1-.07-5.38-3.34-9.55-6.72-12.7-10.07-22.81-24.17,6.45-47.51,8.21-56.4.05-.22.05-.45.02-.69-3.67-28.29-74.71,26.58-81.15,25.99-2.6.02-7.41-6.05-.5-14.36,6.67-8,6.5-9.89,6.45-14.31,0-.33-.07-.67-.22-.97-12.84-25.98-62.28,7.93-87.62,25.12-5.21,3.55-9.41,6.38-12.05,7.83-.28.14-.5.34-.69.57-4.36,5.77,1.48,3.71,11.29-1.14,17.46-8.64,47.51-26.08,54.97-23.91,3.91-.02,6.98,2.14,7,8.22,0,2.19-7.79,6.14-7.79,7.43,1.74.43-25.53,25.79-25.49,30.58.05,10.51,5.34,9.6,8.43,9.52.21,0,.41-.03.6-.09,17.43-5.48,61.95-35.25,82.12-43.82,3.03-.02,1.31,1.31,2.6,1.72.03,4.79-6.46,8.74-6.45,13.51.02,2.43,1.03,5.09,2.81,7.83.16.24.31.48.48.72,8.48,12.36,31.46,26.41,45.42,30.41l.19-.02,9.1-.76c-.62-.34-1.24-.69-1.84-1.03Z"/>
          </g>
          <path class="cls-2" d="M1026.16,590.96c-114.44,98.08-89.7,250.22-238.39,335.27-70.26,53.73-164.45,124.16-258.17,96.94-21.6-7.38-41.06-25.55-43.44-49.21-2.1-13.93,4.31-32.44,6.19-40.37.38-2.43,1.17-5.43-1.12-6.88-21.37.19-58.64,16.84-52.47,45.16,3.6,18.55,13.91,36.77,29.67,48.66,128.16,65.24,270.65-39.85,368.09-119.58,7.24-5.55,15-12.27,13.31-4.43-46.89,121.15-120.35,302.02-169.84,427.21-6.14,15.84-13.2,27.84,2.41,21.79,14.41-5.58,43.78-18.86,49.64-38.37,56.78-160.27,106.94-385.71,223.52-509.87,42.15-49.09,106.03-107.94,113.15-174.34,1-24.93-15.38-49.4-42.54-31.99ZM931.65,801.33c-26.77,9.72,79.53-193.09,121.47-179.94,20.44,11.62-63.3,127.49-121.47,179.94Z"/>
        </g>
      </g>
      <g>
        <path class="cls-2" d="M2451.26,898.28c-10.97.02-4.73-42.62-24.14-42.58-32.94-7.59-64.53,6.27-91.11,29.32-80.13,47.44-142.53,120.71-205.59,184.86-40.89-.72,126.62-197.47,30.96-127.96-46.16,38.22-86.59,91.85-144.96,109.2-67.33-22.37,190.79-210.52,118.2-199.04-37.34-3.38-76.35-21.65-113.13-6.95-18.69,6.32-56.64,37.01-44.63,56.65,18.47-.77,24.37-28.9,37.93-31.73,15.58,6.78-9.07,26.23-15.12,33.38-96.39,70.23-20.92-77.89,38.26-73.51,38.3-1.53,75.48,11.06,113.13,12.01,17.92-4.58,95.1-51.39,53.6-3.9-29.72,8.6-181.85,172.34-170.98,196.17,51.44-13.82,228.37-232.48,153.14-45.04,73.64-47.15,141.62-142.34,239.84-155.81,29.24-2.33,61.03,54.3,24.61,64.95Z"/>
        <path class="cls-2" d="M2347.69,1025.11c-52.31-14.51-26.9,4.04-71.72,16.61-67.96,6.52,13.46-85.47,45.05-54.54,17.22,6.51-2.44,28.3,28.77,28.64,45.95-20.09,26.91,5.98-2.1,9.29ZM2299.54,1007.9c-5.12-4.78-1.45-9.16-4.24-12.23-16.03,3.63-22.11,16.48-27.38,29.18,3.79,17.47,45.53-14,31.62-16.94ZM2312.6,995.63c-4.78-.13-2.52,4.77.85,4.64,3.32-.12,2.37-4.81-.85-4.64Z"/>
        <path class="cls-2" d="M2619.08,1022.87c-132.54,62.1-14.94-61.36-122.81,4.9-7.94,11.52-17.36,22.3-27.43,4.69,38.18-53.08-45.3-5.61-60.34,7.72-24.6-4.64,2.22-20.6.35-34.61-11.64-14.39-34.52,17.34-48.93,16.56-16.78-3.11,50.54-48.79,57.32-35.99,26.69,1.27-6.13,36.74,29.59,18.51,19.45-15.24,69.1-35.46,60.36,4.1,18.14-.13,59.49-45.55,69.2-12.39.01,6.76-13.06,12.69-13.03,28.73,4.03,20.31,105.12-39.06,55.71-2.22Z"/>
        <path class="cls-2" d="M2715.73,1020.14c-29.58,23.33-80.25,32.11-102.56-.22,18.55-16.36,34.35-47.78,62.79-49.08,31.89,15.41-23.82,36.13-32.83,45.64-.83,40.91,120.36-30.7,72.6,3.66ZM2668.81,984.78c-6.28.2-19.93,9.54-18.54,15.23,4.43-2.59,23.71-10.58,18.54-15.23Z"/>
        <path class="cls-2" d="M2891.73,1018.94c-31.15,14.9-75.32,44.58-83.16-8.7-21.94,6.28-31.54,27.61-57.76,29.67-18.02-1.25-5.58-14.19-1.31-21.95-8.32-17.69-31.58,4.23-45.15,5.15-13.42-.12.98-9.07,5.47-10.56,20.69-4.22,51.7-44.34,65.82-12.8-21.88,47.81,38.84-21.69,53.13-22.05,5.07,0,10.57,8.42,10.58,13.07-.85,7.99-19.39,10.19-13.03,24.09-1.4,41.62,93.84-28.89,65.43,4.09Z"/>
      </g>
    </g>
  </g>
</svg>