<?xml version="1.0" encoding="UTF-8"?>
<svg xmlns="http://www.w3.org/2000/svg" viewBox="0 0 3335.1 1932.22">
  <defs>
    <style>
      .cls-1 {
        fill: #191a18;
      }

      .cls-2 {
        fill: #f1ece8;
      }
    </style>
  </defs>
  <g id="FONDO">
    <rect class="cls-1" x="-29.67" y="-29.17" width="3398.17" height="1992.56"/>
  </g>
  <g id="LOGOTIPOS">
    <g>
      <g>
        <g>
          <g>
            <g>
              <path class="cls-2" d="M1180.38,911.67c-.61-.48-1.47-.65-2.19-.35-5.1,1.95-8.83,5.36-13.34,7.65-2.67,1.35-5.62,2.32-9.28,2.34-10.78.06-18.3-7.39-18.36-18.17-.07-14.51,26.99-32.91,26.93-42.74-.02-5.14-6.57-5.1-10.32-5.09-7.96.04-14.94,9.43-24.29,9.48-6.09.02-8-7.46-20.64-7.39-19.47-2.3-83.67,58.22-87.14,74.13-.04.19-.06.39-.04.59.28,17.5,17.02,19.26,30.99,19.19,28.56-.13,41.05-28.75,58.85-28.84,2.75-.02,4.16,1.76,5.98,3.58.07.09.17.17.24.22,5.79,4.6,23.85,7.28,31.29,7.24,2.71-.02,7.98-2.06,13.51-4.97,7.65-4.03,15.81-9.71,18.39-13.96.2-.33.3-.72.3-1.1,0-.69-.32-1.35-.89-1.82ZM1051.63,926.06c0-2.62.39-5.23,1.19-7.85.11-.39.33-.74.63-1.02,5.79-5.4,51.74-48.16,57.85-44.82,38.81.33-57.63,86.8-59.67,53.69Z"/>
              <path class="cls-2" d="M1309.33,913.53c-.2-1.37-1.56-2.26-2.9-1.89-2.23.65-4.6,1.87-7.02,3.36-11.93,7.28-25.02,20.29-27.76-3.41-.02-.15-.04-.28-.02-.43.37-7.39,22.72-38.31,22.72-41.57-.02-5.62-5.18-6.53-9.39-6.51-16.39.09-21.44,22.12-27.45,33.39-11.6,21.12-40.96,49.83-66.72,49.96-5.6.04-8.44-6.51-8.46-11.19-2.88-31.83,52.21-57.42,32.05-74.68-.63-.54-1.48-.74-2.26-.48-16.48,5.9-39.61,34.98-47.27,58.91-1.08,3.32-1.84,6.53-2.26,9.58-.45,3.4-.46,6.59.06,9.45.02.09.04.19.04.28.09,10.24,4.36,19.97,16.02,19.91,15.92-.07,56.57-16.2,67.74-27.02,3.27-3.3,7.91-12.69,12.58-12.71,2.82-.02,3.3,2.8,3.3,5.14-4.14,29.12,15.66,13.6,29.06,4.53,1.04-.63,4.75-2.75,8.56-5.07,4.73-2.91,9.63-6.14,9.63-7.2,0-.69-.13-1.5-.24-2.32Z"/>
              <path class="cls-2" d="M1435.83,909.45c-.28.06-.56.17-.8.32-.93.59-1.97,1.22-3.1,1.91-20.82,12.47-74.03,38.92-75.89,29.23-.02-2.34,1.86-5.16,3.71-7.98,7.7-12.3,17.65-23.16,19.9-36.38.04-.17.06-.33.04-.5-.19-12.55-9.48-25-9.5-29.19.43-7.79-5.31-25.2-18.95-16.5-.2.13-.41.3-.58.5-8.91,10.75-13.57,30.81-23.9,40.11-3.92,4.68-18.04,16.61-27.34,24.03-2.54,2.02-4.71,3.71-6.22,4.83-.32.22-.56.52-.72.87-1.5,3.27-.45,3.67,3.56,3.66.87,0,2.23-.48,3.9-1.3,6.29-3.12,17.09-11.14,24.09-17.09,10.78-9.26,26.63-28.34,33.5-10,.11.3.17.63.15.93-.72,8.31-20.1,40.18-29.21,53.99-4.64,7.05,1.5,16.85,17.41,16.78-1.3,3.19,53.99-25.7,81.83-44.15,14.92-9.87,21.96-16.76,8.13-14.05Z"/>
              <path class="cls-2" d="M1568.55,909.19c-.15.04-.32.11-.45.19-1.41.78-2.93,1.6-4.55,2.41-31.18,16.11-98.81,40.37-112.86,22.88-.43-.56-.59-1.32-.37-1.97,3.23-9.32,43.04-22.18,49.76-26.71,25.11-16.46,57.24-31.11,57.27-61.34,0-.19-.02-.37-.06-.56-4.05-20.03-43.76-7.79-59.41.58-23.11,12.21-53.45,39.55-65.96,67-1.82,3.95-3.25,7.91-4.23,11.82-.72,2.86-1.21,5.7-1.43,8.48-.04.39.06.82.22,1.19,6.03,12.73,11.34,21.34,29.69,21.27.07,0,.15,0,.22.02,28.97,3.62,76.02-17.2,101.52-32.16,16.96-9.93,24.39-17.28,10.62-13.1ZM1458.4,904.34c64.44-84.61,136.02-51.15,7.03,3.71-11.67,4.73-7.03-3.71-7.03-3.71Z"/>
              <path class="cls-2" d="M1710.19,910.88c-.11.04-.22.09-.33.15,2.25-2.06-41.59,26.11-48.33,14.85-.22-.35-.3-.78-.28-1.19,1.15-34.43,29.6-42.84,24.05-55.68-.97-4.19-5.64-4.64-8.93-4.62-8.5-.26-10.06,7.76-13.92,7.55-.87-.06-1.6-.72-1.86-1.56-1.17-3.54-2.13-6.83-4.4-10.73-.28-.5-.76-.89-1.32-1.06-11.34-3.4-18.67,2.28-35.54,10.73-.04.02-.07.04-.11.06-16.89,9.65-42.89,24.29-55.68,42.41-2.38,3.38-4.31,6.89-5.62,10.5-1.39,3.73-2.1,7.61-2,11.58,0,.28.04.54.13.78,3.25,9,22.66,12.56,29.73,12.58.13,0,.22,0,.35-.02,10.24-1.28,40.98-21.49,51.95-33.33.09-.11.2-.2.32-.28,16.96-12.45,1.17,14.38,4.51,23.68.07.2.19.39.32.58,1.26,1.67,5.79,6.38,8.87,6.68.22.02.45,0,.65-.04,17.02-3.34,38.42-11.88,55.88-25.82,1.21-.97,2.41-1.97,3.58-2.99,3.17-3.21,1.91-6.38-2.02-4.83ZM1646.63,888.68c-.06.13-.13.26-.2.39-7.74,12.42-12.97,14.18-29.55,26.04-.11.09-.24.17-.37.22-8.28,3.67-27.1,17.59-34.07,11.27-.61-.56-.85-1.41-.67-2.23,2.08-9.37,28.92-30.59,40.83-36.75.04-.02.07-.04.11-.07,11.02-6.85,30.98-16.02,23.92,1.13Z"/>
              <path class="cls-2" d="M1893.99,962.1s-.07-.04-.11-.06c-1.11-.65-2.17-1.28-3.19-1.91-.04-.02-.07-.04-.11-.07-5.79-3.6-10.28-7.24-13.68-10.84-24.55-26.02,6.94-51.15,8.83-60.73.06-.24.06-.48.02-.74-3.95-30.46-80.44,28.62-87.38,27.99-2.8.02-7.98-6.51-.54-15.46,7.18-8.61,7-10.65,6.94-15.4,0-.35-.07-.72-.24-1.04-13.83-27.97-67.05,8.54-94.34,27.04-5.6,3.82-10.13,6.87-12.97,8.43-.3.15-.54.37-.74.61-4.7,6.22,1.6,3.99,12.16-1.22,18.8-9.3,51.15-28.08,59.19-25.74,4.21-.02,7.52,2.3,7.54,8.85,0,2.36-8.39,6.61-8.39,8,1.87.46-27.49,27.76-27.45,32.92.06,11.32,5.75,10.34,9.08,10.24.22,0,.45-.04.65-.09,18.76-5.9,66.7-37.95,88.42-47.18,3.27-.02,1.41,1.41,2.8,1.86.04,5.16-6.96,9.41-6.94,14.55.02,2.62,1.11,5.48,3.03,8.43.17.26.33.52.52.78,9.13,13.31,33.87,28.43,48.9,32.74l.2-.02,9.8-.82c-.67-.37-1.34-.74-1.99-1.11Z"/>
            </g>
            <path class="cls-2" d="M1123.85,566.19c-123.22,105.6-96.58,269.41-256.68,360.98-75.65,57.85-177.06,133.68-277.96,104.38-23.25-7.94-44.21-27.5-46.77-52.99-2.26-15,4.64-34.93,6.66-43.47.41-2.62,1.26-5.85-1.21-7.41-23.01.2-63.14,18.13-56.49,48.63,3.88,19.97,14.98,39.59,31.94,52.39,137.99,70.25,291.4-42.91,396.32-128.75,7.79-5.98,16.15-13.21,14.33-4.77-50.48,130.44-129.58,325.18-182.87,459.97-6.61,17.06-14.22,29.97,2.6,23.46,15.52-6.01,47.14-20.3,53.45-41.31,61.13-172.56,115.14-415.28,240.66-548.97,45.38-52.86,114.16-116.22,121.82-187.71,1.08-26.84-16.55-53.19-45.8-34.45ZM1022.09,792.69c-28.82,10.47,85.63-207.9,130.79-193.74,22.01,12.51-68.15,137.26-130.79,193.74Z"/>
          </g>
          <path class="cls-2" d="M2054.54,986.95c-307.12,55.18-621.04,7.81-928.18,62.97-12.66.33-26.22-6.59-38.53-9.17-.39-.19-5.72-2.34-6.37-2.34,187.1-33.63,388.12-23.05,577.28-39.14,106.44-9.06,201.33.66,306.8-16.34-27.58-3.17-55.16-8.82-79.38-18.91-18.95-7.89-35.84-18.47-49.11-32.72-.26-.28-.52-.56-.78-.84.09.02.17.04.26.06,13.21,2.47,27.41,12.58,40.35,18.69,3.4,3.6,7.89,7.24,13.68,10.84.04.04.07.06.11.07,1.04.71,2.1,1.34,3.19,1.91.04.02.07.04.11.06,8.96,4.73,19.58,6.09,30.6,9.84,45.23,8.79,30.37.78,81.59,4.12,1.15-.2,31.07,4.25,41.96,8.54,0,.04,5.74,2.36,6.4,2.36Z"/>
        </g>
        <g>
          <g>
            <path class="cls-2" d="M1180.38,911.67c-.61-.48-1.47-.65-2.19-.35-5.1,1.95-8.83,5.36-13.34,7.65-2.67,1.35-5.62,2.32-9.28,2.34-10.78.06-18.3-7.39-18.36-18.17-.07-14.51,26.99-32.91,26.93-42.74-.02-5.14-6.57-5.1-10.32-5.09-7.96.04-14.94,9.43-24.29,9.48-6.09.02-8-7.46-20.64-7.39-19.47-2.3-83.67,58.22-87.14,74.13-.04.19-.06.39-.04.59.28,17.5,17.02,19.26,30.99,19.19,28.56-.13,41.05-28.75,58.85-28.84,2.75-.02,4.16,1.76,5.98,3.58.07.09.17.17.24.22,5.79,4.6,23.85,7.28,31.29,7.24,2.71-.02,7.98-2.06,13.51-4.97,7.65-4.03,15.81-9.71,18.39-13.96.2-.33.3-.72.3-1.1,0-.69-.32-1.35-.89-1.82ZM1051.63,926.06c0-2.62.39-5.23,1.19-7.85.11-.39.33-.74.63-1.02,5.79-5.4,51.74-48.16,57.85-44.82,38.81.33-57.63,86.8-59.67,53.69Z"/>
            <path class="cls-2" d="M1309.33,913.53c-.2-1.37-1.56-2.26-2.9-1.89-2.23.65-4.6,1.87-7.02,3.36-11.93,7.28-25.02,20.29-27.76-3.41-.02-.15-.04-.28-.02-.43.37-7.39,22.72-38.31,22.72-41.57-.02-5.62-5.18-6.53-9.39-6.51-16.39.09-21.44,22.12-27.45,33.39-11.6,21.12-40.96,49.83-66.72,49.96-5.6.04-8.44-6.51-8.46-11.19-2.88-31.83,52.21-57.42,32.05-74.68-.63-.54-1.48-.74-2.26-.48-16.48,5.9-39.61,34.98-47.27,58.91-1.08,3.32-1.84,6.53-2.26,9.58-.45,3.4-.46,6.59.06,9.45.02.09.04.19.04.28.09,10.24,4.36,19.97,16.02,19.91,15.92-.07,56.57-16.2,67.74-27.02,3.27-3.3,7.91-12.69,12.58-12.71,2.82-.02,3.3,2.8,3.3,5.14-4.14,29.12,15.66,13.6,29.06,4.53,1.04-.63,4.75-2.75,8.56-5.07,4.73-2.91,9.63-6.14,9.63-7.2,0-.69-.13-1.5-.24-2.32Z"/>
            <path class="cls-2" d="M1435.83,909.45c-.28.06-.56.17-.8.32-.93.59-1.97,1.22-3.1,1.91-20.82,12.47-74.03,38.92-75.89,29.23-.02-2.34,1.86-5.16,3.71-7.98,7.7-12.3,17.65-23.16,19.9-36.38.04-.17.06-.33.04-.5-.19-12.55-9.48-25-9.5-29.19.43-7.79-5.31-25.2-18.95-16.5-.2.13-.41.3-.58.5-8.91,10.75-13.57,30.81-23.9,40.11-3.92,4.68-18.04,16.61-27.34,24.03-2.54,2.02-4.71,3.71-6.22,4.83-.32.22-.56.52-.72.87-1.5,3.27-.45,3.67,3.56,3.66.87,0,2.23-.48,3.9-1.3,6.29-3.12,17.09-11.14,24.09-17.09,10.78-9.26,26.63-28.34,33.5-10,.11.3.17.63.15.93-.72,8.31-20.1,40.18-29.21,53.99-4.64,7.05,1.5,16.85,17.41,16.78-1.3,3.19,53.99-25.7,81.83-44.15,14.92-9.87,21.96-16.76,8.13-14.05Z"/>
            <path class="cls-2" d="M1568.55,909.19c-.15.04-.32.11-.45.19-1.41.78-2.93,1.6-4.55,2.41-31.18,16.11-98.81,40.37-112.86,22.88-.43-.56-.59-1.32-.37-1.97,3.23-9.32,43.04-22.18,49.76-26.71,25.11-16.46,57.24-31.11,57.27-61.34,0-.19-.02-.37-.06-.56-4.05-20.03-43.76-7.79-59.41.58-23.11,12.21-53.45,39.55-65.96,67-1.82,3.95-3.25,7.91-4.23,11.82-.72,2.86-1.21,5.7-1.43,8.48-.04.39.06.82.22,1.19,6.03,12.73,11.34,21.34,29.69,21.27.07,0,.15,0,.22.02,28.97,3.62,76.02-17.2,101.52-32.16,16.96-9.93,24.39-17.28,10.62-13.1ZM1458.4,904.34c64.44-84.61,136.02-51.15,7.03,3.71-11.67,4.73-7.03-3.71-7.03-3.71Z"/>
            <path class="cls-2" d="M1710.19,910.88c-.11.04-.22.09-.33.15,2.25-2.06-41.59,26.11-48.33,14.85-.22-.35-.3-.78-.28-1.19,1.15-34.43,29.6-42.84,24.05-55.68-.97-4.19-5.64-4.64-8.93-4.62-8.5-.26-10.06,7.76-13.92,7.55-.87-.06-1.6-.72-1.86-1.56-1.17-3.54-2.13-6.83-4.4-10.73-.28-.5-.76-.89-1.32-1.06-11.34-3.4-18.67,2.28-35.54,10.73-.04.02-.07.04-.11.06-16.89,9.65-42.89,24.29-55.68,42.41-2.38,3.38-4.31,6.89-5.62,10.5-1.39,3.73-2.1,7.61-2,11.58,0,.28.04.54.13.78,3.25,9,22.66,12.56,29.73,12.58.13,0,.22,0,.35-.02,10.24-1.28,40.98-21.49,51.95-33.33.09-.11.2-.2.32-.28,16.96-12.45,1.17,14.38,4.51,23.68.07.2.19.39.32.58,1.26,1.67,5.79,6.38,8.87,6.68.22.02.45,0,.65-.04,17.02-3.34,38.42-11.88,55.88-25.82,1.21-.97,2.41-1.97,3.58-2.99,3.17-3.21,1.91-6.38-2.02-4.83ZM1646.63,888.68c-.06.13-.13.26-.2.39-7.74,12.42-12.97,14.18-29.55,26.04-.11.09-.24.17-.37.22-8.28,3.67-27.1,17.59-34.07,11.27-.61-.56-.85-1.41-.67-2.23,2.08-9.37,28.92-30.59,40.83-36.75.04-.02.07-.04.11-.07,11.02-6.85,30.98-16.02,23.92,1.13Z"/>
            <path class="cls-2" d="M1893.99,962.1s-.07-.04-.11-.06c-1.11-.65-2.17-1.28-3.19-1.91-.04-.02-.07-.04-.11-.07-5.79-3.6-10.28-7.24-13.68-10.84-24.55-26.02,6.94-51.15,8.83-60.73.06-.24.06-.48.02-.74-3.95-30.46-80.44,28.62-87.38,27.99-2.8.02-7.98-6.51-.54-15.46,7.18-8.61,7-10.65,6.94-15.4,0-.35-.07-.72-.24-1.04-13.83-27.97-67.05,8.54-94.34,27.04-5.6,3.82-10.13,6.87-12.97,8.43-.3.15-.54.37-.74.61-4.7,6.22,1.6,3.99,12.16-1.22,18.8-9.3,51.15-28.08,59.19-25.74,4.21-.02,7.52,2.3,7.54,8.85,0,2.36-8.39,6.61-8.39,8,1.87.46-27.49,27.76-27.45,32.92.06,11.32,5.75,10.34,9.08,10.24.22,0,.45-.04.65-.09,18.76-5.9,66.7-37.95,88.42-47.18,3.27-.02,1.41,1.41,2.8,1.86.04,5.16-6.96,9.41-6.94,14.55.02,2.62,1.11,5.48,3.03,8.43.17.26.33.52.52.78,9.13,13.31,33.87,28.43,48.9,32.74l.2-.02,9.8-.82c-.67-.37-1.34-.74-1.99-1.11Z"/>
          </g>
          <path class="cls-2" d="M1123.85,566.19c-123.22,105.6-96.58,269.41-256.68,360.98-75.65,57.85-177.06,133.68-277.96,104.38-23.25-7.94-44.21-27.5-46.77-52.99-2.26-15,4.64-34.93,6.66-43.47.41-2.62,1.26-5.85-1.21-7.41-23.01.2-63.14,18.13-56.49,48.63,3.88,19.97,14.98,39.59,31.94,52.39,137.99,70.25,291.4-42.91,396.32-128.75,7.79-5.98,16.15-13.21,14.33-4.77-50.48,130.44-129.58,325.18-182.87,459.97-6.61,17.06-14.22,29.97,2.6,23.46,15.52-6.01,47.14-20.3,53.45-41.31,61.13-172.56,115.14-415.28,240.66-548.97,45.38-52.86,114.16-116.22,121.82-187.71,1.08-26.84-16.55-53.19-45.8-34.45ZM1022.09,792.69c-28.82,10.47,85.63-207.9,130.79-193.74,22.01,12.51-68.15,137.26-130.79,193.74Z"/>
        </g>
      </g>
      <g>
        <path class="cls-2" d="M2144.07,856.84l51.11.09c21.14,37.09,42.06,74.18,63.2,111.27h.45c21.27-37.01,42.31-74.03,63.58-111.05l51.11.09-.3,174.1-41.74-.07c.06-33.48.12-67.18.18-100.67h-.89c-19.25,33.45-38.28,67.12-57.54,100.56l-29.69-.05c-19.14-33.51-38.05-67.25-57.19-100.77h-.67c-.06,33.48-.12,67.18-.18,100.66l-41.74-.07.3-174.1Z"/>
        <path class="cls-2" d="M2433.57,857.34l136.82.24-.06,36.61c-27.68-.05-55.35-.1-95.76-.17-.02,10.04-.03,20.09-.05,30.13,38.61.07,64.51.11,90.4.16l-.07,38.61c-30.13-.05-60.27-.1-90.4-.16-.02,10.71-.04,21.43-.06,32.14,43.08.07,70.76.12,98.43.17l-.06,36.61-139.5-.24.3-174.1Z"/>
        <path class="cls-2" d="M2623.97,857.67l42.63.07c29.41,33.31,60.59,67.74,90.44,103.72h.67c.06-34.6.12-68.97.18-103.57l40.85.07-.3,174.1-42.41-.07c-30.07-33.76-60.37-65.73-90.45-101.27h-.67c-.06,33.7-.12,67.41-.18,101.11l-41.07-.07.3-174.1Z"/>
      </g>
    </g>
  </g>
</svg>