<?xml version="1.0" encoding="UTF-8"?>
<svg xmlns="http://www.w3.org/2000/svg" viewBox="0 0 3335.1 1932.22">
  <defs>
    <style>
      .cls-1 {
        fill: #f2f2f2;
      }

      .cls-2 {
        fill: #a4c9d5;
      }
    </style>
  </defs>
  <g id="LOGOTIPOS">
    <g>
      <g>
        <g>
          <g>
            <g>
              <path class="cls-1" d="M1233.17,910.99c-.58-.46-1.38-.61-2.07-.33-4.81,1.84-8.33,5.06-12.59,7.21-2.52,1.28-5.3,2.19-8.75,2.21-10.17.05-17.26-6.97-17.31-17.14-.07-13.69,25.45-31.04,25.4-40.32-.02-4.85-6.2-4.81-9.73-4.8-7.51.03-14.09,8.89-22.92,8.95-5.74.02-7.55-7.04-19.47-6.97-18.36-2.17-78.92,54.92-82.19,69.92-.03.18-.05.37-.03.56.26,16.51,16.05,18.17,29.23,18.1,26.94-.12,38.72-27.12,55.51-27.2,2.59-.02,3.92,1.66,5.64,3.38.07.09.16.16.23.21,5.46,4.34,22.5,6.86,29.52,6.83,2.56-.02,7.53-1.94,12.74-4.69,7.21-3.8,14.92-9.16,17.35-13.16.19-.32.28-.68.28-1.03,0-.65-.3-1.28-.84-1.72ZM1111.73,924.56c0-2.47.37-4.94,1.12-7.41.11-.37.32-.7.6-.96,5.46-5.09,48.81-45.43,54.57-42.28,36.6.32-54.36,81.88-56.28,50.64Z"/>
              <path class="cls-1" d="M1354.8,912.74c-.19-1.3-1.47-2.14-2.73-1.79-2.1.61-4.34,1.77-6.62,3.17-11.26,6.86-23.6,19.13-26.19-3.22-.02-.14-.04-.26-.02-.4.35-6.97,21.43-36.13,21.43-39.21-.02-5.3-4.88-6.16-8.86-6.14-15.46.09-20.22,20.87-25.89,31.49-10.94,19.92-38.64,47-62.93,47.13-5.29.04-7.97-6.14-7.98-10.56-2.71-30.02,49.24-54.16,30.23-70.44-.6-.51-1.4-.7-2.14-.46-15.55,5.57-37.36,33-44.59,55.56-1.02,3.13-1.73,6.16-2.14,9.03-.42,3.2-.44,6.21.05,8.91.02.09.04.18.04.26.09,9.66,4.11,18.84,15.11,18.78,15.02-.07,53.36-15.28,63.9-25.49,3.08-3.12,7.46-11.97,11.87-11.99,2.66-.02,3.12,2.64,3.12,4.85-3.9,27.47,14.78,12.83,27.41,4.27.98-.6,4.48-2.59,8.07-4.78,4.46-2.75,9.09-5.79,9.09-6.79,0-.65-.12-1.42-.23-2.19Z"/>
              <path class="cls-1" d="M1474.12,908.89c-.26.05-.53.16-.75.3-.88.56-1.86,1.16-2.92,1.8-19.64,11.76-69.83,36.71-71.58,27.57-.02-2.21,1.75-4.87,3.5-7.53,7.26-11.61,16.65-21.85,18.77-34.31.04-.16.05-.32.04-.47-.18-11.83-8.95-23.58-8.96-27.54.4-7.35-5.01-23.77-17.87-15.56-.19.12-.39.28-.54.47-8.4,10.14-12.8,29.06-22.55,37.83-3.69,4.41-17.02,15.67-25.79,22.67-2.4,1.91-4.45,3.5-5.86,4.55-.3.21-.53.49-.68.82-1.42,3.08-.42,3.47,3.36,3.45.82,0,2.1-.46,3.68-1.23,5.93-2.94,16.12-10.5,22.72-16.12,10.17-8.74,25.12-26.73,31.6-9.44.11.28.16.6.14.88-.68,7.84-18.96,37.9-27.55,50.92-4.38,6.65,1.42,15.9,16.42,15.83-1.23,3.01,50.92-24.25,77.18-41.65,14.07-9.31,20.71-15.81,7.67-13.25Z"/>
              <path class="cls-1" d="M1599.31,908.65c-.14.04-.3.11-.42.18-1.33.74-2.77,1.51-4.29,2.28-29.41,15.2-93.2,38.08-106.45,21.58-.4-.53-.56-1.24-.35-1.86,3.05-8.79,40.6-20.92,46.93-25.19,23.69-15.53,53.99-29.34,54.02-57.86,0-.18-.02-.35-.05-.53-3.82-18.89-41.28-7.35-56.04.54-21.79,11.52-50.42,37.31-62.22,63.2-1.72,3.73-3.06,7.46-3.99,11.15-.68,2.7-1.14,5.37-1.35,8-.04.37.05.77.21,1.12,5.69,12.01,10.7,20.13,28.01,20.06.07,0,.14,0,.21.02,27.33,3.41,71.7-16.23,95.76-30.34,16-9.37,23-16.3,10.01-12.36ZM1495.41,904.08c60.78-79.81,128.3-48.25,6.63,3.5-11.01,4.46-6.63-3.5-6.63-3.5Z"/>
              <path class="cls-1" d="M1732.91,910.24c-.1.03-.21.09-.31.14,2.12-1.94-39.23,24.63-45.59,14-.21-.33-.28-.74-.26-1.12,1.09-32.47,27.92-40.4,22.69-52.52-.91-3.96-5.32-4.38-8.42-4.36-8.02-.25-9.49,7.32-13.13,7.12-.82-.05-1.51-.68-1.75-1.47-1.1-3.34-2.01-6.44-4.15-10.12-.26-.47-.72-.84-1.24-1-10.7-3.2-17.61,2.15-33.52,10.12-.04.02-.07.04-.11.05-15.93,9.1-40.46,22.92-52.52,40-2.24,3.19-4.06,6.49-5.3,9.91-1.31,3.52-1.98,7.18-1.89,10.92,0,.26.04.51.12.74,3.06,8.49,21.37,11.85,28.04,11.87.12,0,.21,0,.33-.02,9.66-1.21,38.65-20.27,49-31.44.09-.11.19-.19.3-.26,16-11.75,1.1,13.57,4.25,22.34.07.19.18.37.3.54,1.19,1.58,5.46,6.02,8.37,6.3.21.02.42,0,.61-.03,16.05-3.15,36.24-11.2,52.71-24.35,1.14-.91,2.28-1.86,3.38-2.82,2.99-3.03,1.8-6.02-1.91-4.55ZM1672.96,889.3c-.05.12-.12.25-.19.37-7.3,11.71-12.24,13.37-27.87,24.56-.11.09-.23.16-.35.21-7.81,3.47-25.56,16.6-32.14,10.63-.58-.53-.81-1.33-.63-2.1,1.96-8.84,27.27-28.85,38.51-34.66.04-.02.07-.04.11-.07,10.4-6.46,29.22-15.11,22.56,1.07Z"/>
              <path class="cls-1" d="M1906.28,958.56s-.07-.04-.1-.05c-1.05-.61-2.05-1.21-3.01-1.8-.03-.02-.07-.04-.1-.07-5.46-3.4-9.7-6.83-12.9-10.22-23.16-24.54,6.55-48.25,8.33-57.28.05-.23.05-.46.02-.7-3.73-28.73-75.87,26.99-82.42,26.4-2.64.02-7.53-6.14-.51-14.58,6.77-8.12,6.6-10.05,6.55-14.53,0-.33-.07-.68-.23-.98-13.04-26.38-63.25,8.05-88.98,25.51-5.29,3.61-9.56,6.48-12.24,7.95-.28.14-.51.35-.7.58-4.43,5.86,1.51,3.76,11.47-1.16,17.73-8.77,48.25-26.49,55.83-24.28,3.97-.02,7.09,2.17,7.11,8.35,0,2.22-7.91,6.23-7.91,7.55,1.77.44-25.93,26.19-25.89,31.06.05,10.68,5.43,9.75,8.56,9.66.21,0,.42-.04.61-.09,17.7-5.57,62.92-35.8,83.4-44.5,3.08-.02,1.33,1.33,2.64,1.75.04,4.87-6.56,8.88-6.55,13.72.02,2.47,1.05,5.16,2.85,7.95.16.25.31.49.49.74,8.61,12.55,31.95,26.82,46.13,30.88l.19-.02,9.24-.77c-.63-.35-1.26-.7-1.87-1.05Z"/>
            </g>
            <path class="cls-1" d="M1179.85,585.12c-116.22,99.61-91.1,254.12-242.11,340.49-71.35,54.57-167.01,126.1-262.19,98.45-21.93-7.49-41.7-25.94-44.11-49.98-2.14-14.14,4.38-32.95,6.28-41,.39-2.47,1.19-5.51-1.14-6.98-21.71.19-59.56,17.1-53.29,45.87,3.66,18.84,14.13,37.34,30.13,49.42,130.16,66.26,274.86-40.47,373.82-121.44,7.35-5.64,15.23-12.46,13.51-4.5-47.62,123.03-122.23,306.72-172.49,433.87-6.23,16.09-13.41,28.27,2.45,22.13,14.63-5.67,44.47-19.15,50.42-38.97,57.66-162.77,108.61-391.71,227-517.81,42.8-49.86,107.68-109.62,114.91-177.06,1.02-25.31-15.62-50.17-43.2-32.49ZM1083.86,798.76c-27.19,9.87,80.77-196.1,123.36-182.74,20.76,11.8-64.28,129.47-123.36,182.74Z"/>
          </g>
          <path class="cls-1" d="M2057.72,982c-289.69,52.05-585.79,7.37-875.5,59.4-11.94.32-24.74-6.21-36.34-8.65-.37-.18-5.39-2.21-6-2.21,176.48-31.72,366.09-21.74,544.51-36.92,100.4-8.54,189.9.63,289.39-15.41-26.01-2.99-52.03-8.32-74.87-17.84-17.87-7.44-33.8-17.42-46.32-30.86-.25-.26-.49-.53-.74-.79.09.02.16.03.25.05,12.46,2.33,25.86,11.87,38.06,17.63,3.2,3.4,7.44,6.83,12.9,10.22.04.03.07.05.1.07.98.67,1.98,1.26,3.01,1.8.04.02.07.03.1.05,8.46,4.46,18.47,5.74,28.87,9.28,42.66,8.29,28.65.73,76.96,3.89,1.09-.19,29.3,4.01,39.58,8.05,0,.04,5.41,2.22,6.04,2.22Z"/>
        </g>
        <g>
          <g>
            <path class="cls-1" d="M1233.17,910.99c-.58-.46-1.38-.61-2.07-.33-4.81,1.84-8.33,5.06-12.59,7.21-2.52,1.28-5.3,2.19-8.75,2.21-10.17.05-17.26-6.97-17.31-17.14-.07-13.69,25.45-31.04,25.4-40.32-.02-4.85-6.2-4.81-9.73-4.8-7.51.03-14.09,8.89-22.92,8.95-5.74.02-7.55-7.04-19.47-6.97-18.36-2.17-78.92,54.92-82.19,69.92-.03.18-.05.37-.03.56.26,16.51,16.05,18.17,29.23,18.1,26.94-.12,38.72-27.12,55.51-27.2,2.59-.02,3.92,1.66,5.64,3.38.07.09.16.16.23.21,5.46,4.34,22.5,6.86,29.52,6.83,2.56-.02,7.53-1.94,12.74-4.69,7.21-3.8,14.92-9.16,17.35-13.16.19-.32.28-.68.28-1.03,0-.65-.3-1.28-.84-1.72ZM1111.73,924.56c0-2.47.37-4.94,1.12-7.41.11-.37.32-.7.6-.96,5.46-5.09,48.81-45.43,54.57-42.28,36.6.32-54.36,81.88-56.28,50.64Z"/>
            <path class="cls-1" d="M1354.8,912.74c-.19-1.3-1.47-2.14-2.73-1.79-2.1.61-4.34,1.77-6.62,3.17-11.26,6.86-23.6,19.13-26.19-3.22-.02-.14-.04-.26-.02-.4.35-6.97,21.43-36.13,21.43-39.21-.02-5.3-4.88-6.16-8.86-6.14-15.46.09-20.22,20.87-25.89,31.49-10.94,19.92-38.64,47-62.93,47.13-5.29.04-7.97-6.14-7.98-10.56-2.71-30.02,49.24-54.16,30.23-70.44-.6-.51-1.4-.7-2.14-.46-15.55,5.57-37.36,33-44.59,55.56-1.02,3.13-1.73,6.16-2.14,9.03-.42,3.2-.44,6.21.05,8.91.02.09.04.18.04.26.09,9.66,4.11,18.84,15.11,18.78,15.02-.07,53.36-15.28,63.9-25.49,3.08-3.12,7.46-11.97,11.87-11.99,2.66-.02,3.12,2.64,3.12,4.85-3.9,27.47,14.78,12.83,27.41,4.27.98-.6,4.48-2.59,8.07-4.78,4.46-2.75,9.09-5.79,9.09-6.79,0-.65-.12-1.42-.23-2.19Z"/>
            <path class="cls-1" d="M1474.12,908.89c-.26.05-.53.16-.75.3-.88.56-1.86,1.16-2.92,1.8-19.64,11.76-69.83,36.71-71.58,27.57-.02-2.21,1.75-4.87,3.5-7.53,7.26-11.61,16.65-21.85,18.77-34.31.04-.16.05-.32.04-.47-.18-11.83-8.95-23.58-8.96-27.54.4-7.35-5.01-23.77-17.87-15.56-.19.12-.39.28-.54.47-8.4,10.14-12.8,29.06-22.55,37.83-3.69,4.41-17.02,15.67-25.79,22.67-2.4,1.91-4.45,3.5-5.86,4.55-.3.21-.53.49-.68.82-1.42,3.08-.42,3.47,3.36,3.45.82,0,2.1-.46,3.68-1.23,5.93-2.94,16.12-10.5,22.72-16.12,10.17-8.74,25.12-26.73,31.6-9.44.11.28.16.6.14.88-.68,7.84-18.96,37.9-27.55,50.92-4.38,6.65,1.42,15.9,16.42,15.83-1.23,3.01,50.92-24.25,77.18-41.65,14.07-9.31,20.71-15.81,7.67-13.25Z"/>
            <path class="cls-1" d="M1599.31,908.65c-.14.04-.3.11-.42.18-1.33.74-2.77,1.51-4.29,2.28-29.41,15.2-93.2,38.08-106.45,21.58-.4-.53-.56-1.24-.35-1.86,3.05-8.79,40.6-20.92,46.93-25.19,23.69-15.53,53.99-29.34,54.02-57.86,0-.18-.02-.35-.05-.53-3.82-18.89-41.28-7.35-56.04.54-21.79,11.52-50.42,37.31-62.22,63.2-1.72,3.73-3.06,7.46-3.99,11.15-.68,2.7-1.14,5.37-1.35,8-.04.37.05.77.21,1.12,5.69,12.01,10.7,20.13,28.01,20.06.07,0,.14,0,.21.02,27.33,3.41,71.7-16.23,95.76-30.34,16-9.37,23-16.3,10.01-12.36ZM1495.41,904.08c60.78-79.81,128.3-48.25,6.63,3.5-11.01,4.46-6.63-3.5-6.63-3.5Z"/>
            <path class="cls-1" d="M1732.91,910.24c-.1.03-.21.09-.31.14,2.12-1.94-39.23,24.63-45.59,14-.21-.33-.28-.74-.26-1.12,1.09-32.47,27.92-40.4,22.69-52.52-.91-3.96-5.32-4.38-8.42-4.36-8.02-.25-9.49,7.32-13.13,7.12-.82-.05-1.51-.68-1.75-1.47-1.1-3.34-2.01-6.44-4.15-10.12-.26-.47-.72-.84-1.24-1-10.7-3.2-17.61,2.15-33.52,10.12-.04.02-.07.04-.11.05-15.93,9.1-40.46,22.92-52.52,40-2.24,3.19-4.06,6.49-5.3,9.91-1.31,3.52-1.98,7.18-1.89,10.92,0,.26.04.51.12.74,3.06,8.49,21.37,11.85,28.04,11.87.12,0,.21,0,.33-.02,9.66-1.21,38.65-20.27,49-31.44.09-.11.19-.19.3-.26,16-11.75,1.1,13.57,4.25,22.34.07.19.18.37.3.54,1.19,1.58,5.46,6.02,8.37,6.3.21.02.42,0,.61-.03,16.05-3.15,36.24-11.2,52.71-24.35,1.14-.91,2.28-1.86,3.38-2.82,2.99-3.03,1.8-6.02-1.91-4.55ZM1672.96,889.3c-.05.12-.12.25-.19.37-7.3,11.71-12.24,13.37-27.87,24.56-.11.09-.23.16-.35.21-7.81,3.47-25.56,16.6-32.14,10.63-.58-.53-.81-1.33-.63-2.1,1.96-8.84,27.27-28.85,38.51-34.66.04-.02.07-.04.11-.07,10.4-6.46,29.22-15.11,22.56,1.07Z"/>
            <path class="cls-1" d="M1906.28,958.56s-.07-.04-.1-.05c-1.05-.61-2.05-1.21-3.01-1.8-.03-.02-.07-.04-.1-.07-5.46-3.4-9.7-6.83-12.9-10.22-23.16-24.54,6.55-48.25,8.33-57.28.05-.23.05-.46.02-.7-3.73-28.73-75.87,26.99-82.42,26.4-2.64.02-7.53-6.14-.51-14.58,6.77-8.12,6.6-10.05,6.55-14.53,0-.33-.07-.68-.23-.98-13.04-26.38-63.25,8.05-88.98,25.51-5.29,3.61-9.56,6.48-12.24,7.95-.28.14-.51.35-.7.58-4.43,5.86,1.51,3.76,11.47-1.16,17.73-8.77,48.25-26.49,55.83-24.28,3.97-.02,7.09,2.17,7.11,8.35,0,2.22-7.91,6.23-7.91,7.55,1.77.44-25.93,26.19-25.89,31.06.05,10.68,5.43,9.75,8.56,9.66.21,0,.42-.04.61-.09,17.7-5.57,62.92-35.8,83.4-44.5,3.08-.02,1.33,1.33,2.64,1.75.04,4.87-6.56,8.88-6.55,13.72.02,2.47,1.05,5.16,2.85,7.95.16.25.31.49.49.74,8.61,12.55,31.95,26.82,46.13,30.88l.19-.02,9.24-.77c-.63-.35-1.26-.7-1.87-1.05Z"/>
          </g>
          <path class="cls-1" d="M1179.85,585.12c-116.22,99.61-91.1,254.12-242.11,340.49-71.35,54.57-167.01,126.1-262.19,98.45-21.93-7.49-41.7-25.94-44.11-49.98-2.14-14.14,4.38-32.95,6.28-41,.39-2.47,1.19-5.51-1.14-6.98-21.71.19-59.56,17.1-53.29,45.87,3.66,18.84,14.13,37.34,30.13,49.42,130.16,66.26,274.86-40.47,373.82-121.44,7.35-5.64,15.23-12.46,13.51-4.5-47.62,123.03-122.23,306.72-172.49,433.87-6.23,16.09-13.41,28.27,2.45,22.13,14.63-5.67,44.47-19.15,50.42-38.97,57.66-162.77,108.61-391.71,227-517.81,42.8-49.86,107.68-109.62,114.91-177.06,1.02-25.31-15.62-50.17-43.2-32.49ZM1083.86,798.76c-27.19,9.87,80.77-196.1,123.36-182.74,20.76,11.8-64.28,129.47-123.36,182.74Z"/>
        </g>
      </g>
      <g>
        <path class="cls-1" d="M2367.88,985.86c-3.52-1.88-8.89-2.69-17.83-2.69-.1,0-.2,0-.31,0-.35-.01-2.04-.09-10.15-.67-6.45-.46-14.22-1.23-23.11-2.29-8.98-1.06-18.84-2.46-29.33-4.17-10.16-1.64-19.61-3.77-28.09-6.33-8.06-2.42-14.84-5.35-20.17-8.71-3.24-2.03-4.88-3.97-4.88-5.75,0-1.9.61-6.4,4.79-15.16,3.65-7.65,8.2-15.94,13.53-24.64,5.38-8.82,11.27-17.89,17.51-26.96,6.31-9.19,11.99-17.42,17.04-24.71l.24-.37c1.37-2.21,2.99-4.47,4.81-6.71,2.26-2.79,4.31-5.66,6.08-8.5l.43-.78c.56-1.14,1.06-2.48,1.53-4.15.53-1.91.8-3.76.8-5.51-.01-6.48-3.15-12.08-8.85-15.78-4.64-2.99-9.1-4.52-13.41-4.5-5.85.01-11.68,2.78-17.32,8.22-4.53,4.36-8.62,9.65-12.13,15.65-4.8,8.03-9.77,16.57-14.77,25.38-5.25,9.23-10.36,18.29-15.18,26.94-5.1,9.13-10.02,18.36-14.61,27.44-.19.37-.38.74-.56,1.11v-.08c-1.26-7.99-2.38-16.86-3.33-26.36-.94-9.32-1.42-18.86-1.44-28.34,0-1.81.03-5.38.21-12.11.15-5.84.21-14.08.19-24.48-.01-5.04-1.24-10.33-3.65-15.73-4.54-10.16-11.51-11.68-15.28-11.68h-.03c-7.52.02-13.09,5.74-16.56,16.99-2.49,8.06-3.69,18.96-3.66,33.31.03,17.27.39,32.06,1.05,43.95.66,11.98,1.5,22.24,2.49,30.5,1.02,8.52,2.1,15.19,3.29,20.39,1.13,4.96,2.21,9.17,3.21,12.51,3.86,15.3,8.02,29.45,12.36,42.07,4.31,12.52,9.07,25.13,14.15,37.46.41,1.29.73,2.87.96,4.67.27,2.13.41,4.24.42,6.29-.46,8.99-.45,10.62-.45,11.15v2.37c.02,5.82,1.14,11,3.35,15.39,3.08,6.14,8.92,9.65,16.03,9.65h.05c8.86-.02,15.36-5.28,17.84-14.45,1.64-6.05,2.42-14.36,2.4-25.4-.01-6.4-1.65-14.39-5.02-24.44-3.08-9.16-6.43-18.33-9.91-27.14-.05-.14-.1-.28-.16-.41,2.72,1.12,5.63,2.18,8.71,3.2,13.12,4.35,27.16,8.01,41.72,10.89,14.53,2.88,28.5,4.97,41.51,6.22,13.22,1.28,22.7,1.83,29.15,1.89,8.42-.02,15.2-1.33,20.73-4.01,9.97-4.82,11.44-12.03,11.44-15.9-.02-9.16-4.89-13.15-7.82-14.73Z"/>
        <path class="cls-1" d="M2438.1,993.66c-1.93-7.17-4.22-14.96-6.81-23.17-2.64-8.35-5.57-16.17-8.72-23.25-3.26-7.32-6.69-13.51-10.2-18.42-4.93-6.87-10.41-10.35-16.28-10.35h-.03c-3.56,0-10.18,1.44-14.5,10.93-2.26,4.96-3.41,10.37-3.39,16.06,0,1.44.18,2.39,1.82,7.8.99,3.28,2.24,7.08,3.7,11.28,1.44,4.15,2.96,8.45,4.57,12.9,1.55,4.32,2.79,8.01,3.68,10.97l.08.25c.39,1.16,1.17,3.78,2.7,9.62,1.32,5.1,3.01,10.54,5.01,16.18,2.12,5.98,4.65,11.35,7.5,15.95,5.3,8.59,11.7,10.39,16.15,10.39h.03c3.05,0,6.51-1.02,11.19-3.26,8.76-4.19,10.06-10.43,10.05-13.78h0c0-1.29-.15-3.01-1.88-11.12-1.17-5.45-2.74-11.83-4.66-18.96Z"/>
        <path class="cls-1" d="M2391.59,872.64h.11c3.39,0,7.08-1.07,11.58-3.34,3.52-1.76,6.98-3.82,10.3-6.1,3.24-2.22,6.13-4.42,8.61-6.55,3.25-2.8,6.42-5.92,6.41-10.57h0c0-3.62-1.48-8.79-8.47-12.91-3.16-1.84-6.77-3.5-10.75-4.95-3.82-1.37-7.58-2.5-11.2-3.36-5.01-1.17-6.98-1.42-8.47-1.41-7.78.02-14.46,3.24-19.3,9.33-4.44,5.57-6.68,11.69-6.67,18.18.01,6.41,2.59,10.55,4.71,12.87,2.39,2.63,5.2,4.69,8.35,6.13,3.02,1.39,6.13,2.21,9.23,2.44,2.2.17,4.08.25,5.58.25Z"/>
        <path class="cls-1" d="M2608.97,986.04l-.65-1.6c-1.59-3.92-4.72-6.76-8.92-8.1-1.14-2.14-3.13-6.82-6.03-16.88-2.81-9.76-5.67-21.17-8.49-33.89-2.88-13.01-5.69-26.59-8.35-40.37-2.68-13.85-4.83-26.86-6.43-38.78-.67-4.59-1.81-11.69-3.4-21.1-1.56-9.23-3.17-19.26-4.79-29.79-1.62-10.55-3.26-20.37-4.85-29.21-1.94-10.69-2.59-15.34-2.79-17.35l-.07-.52c-1.05-6.55-2.18-11.59-3.47-15.45-1.46-4.35-3.12-7.64-5.09-10.11-3.25-4.04-6.95-5.49-9.53-6-2.17-.42-4.48-.57-6.94-.63-5.54.01-10.36,2.7-13.58,7.55-2.6,3.91-3.87,7.48-3.86,10.9,0,1.57.24,3.06,2.54,10.64l3.49,11.55c.09.46.35,2.15.71,6.94.32,4.41.65,9.28.97,14.62.32,5.41.66,10.57.99,15.49.31,4.78.63,8.23.98,10.51.08,1.24.35,3.5,1.31,8.95.78,4.51,1.81,10.08,3.15,17.02,1.29,6.74,2.66,14.27,4.05,22.39,1.49,8.69,3.04,17.28,4.57,25.45,2.09,11.85,4.35,24.52,6.75,37.87-4.15-3.49-8.7-6.8-13.58-9.87-7.43-4.67-15.08-7.03-22.76-7.03h-.07c-8.09.02-15.34,2.13-21.57,6.29-5.83,3.91-10.72,9.1-14.52,15.42-3.6,5.97-6.41,12.86-8.34,20.49-1.91,7.5-2.86,15.52-2.84,23.84.02,8.96,1.17,17.93,3.42,26.67,2.32,9.03,5.96,17.24,10.8,24.38,5.01,7.4,11.49,13.48,19.26,18.08,7.99,4.74,17.32,7.14,27.73,7.14h.13c11.31-.02,20.5-.99,28.1-2.95,7.54-1.94,13.45-4.06,18.05-6.47,1.63-.85,3.1-1.67,4.43-2.48,2.23,2.96,6.23,7.01,12.11,7.01h.83s.79-.15.79-.15c4.39-.8,7.53-1.76,9.82-2.98.27-.07,1.11-.22,2.84-.23,5.87-.01,12.71-3.98,12.69-15.12-.01-5.68-1.01-10.75-2.96-15.06-.68-1.49-1.1-3.01-1.27-4.61,3.84-3.91,4.65-7.99,4.64-10.74v-1.73ZM2553.61,994.44c-2.15,1.09-5.04,2.27-8.9,3.47-7.33,2.27-14.44,3.43-21.13,3.45h-.05c-6.41,0-12.16-2.69-17.59-8.21-5.49-5.59-8.17-13.03-8.19-22.73-.02-9.57,1.42-18.04,4.29-25.18,2-4.97,3.95-6.78,4.78-6.78h.02c3.88,0,8.42,2.49,13.48,7.41,6.32,6.16,12.17,13.24,17.36,21.06,5.37,8.11,9.86,15.65,13.33,22.4,1.05,2.05,1.91,3.73,2.6,5.1Z"/>
        <path class="cls-1" d="M2745.38,982c-3.82-4.53-8.66-8.82-14.4-12.75-5.35-3.66-11.2-7.12-17.39-10.29-5.69-2.9-11.05-5.84-15.93-8.73-4.35-2.57-7.95-5.33-10.71-8.21-2.26-2.36-2.53-4.12-2.53-5.23-.01-5.14,1.07-8.4,3.22-9.68,3.64-2.17,8.82-3.28,15.4-3.29.97-.08,2.89.1,6.27.6,2.79.41,5.6.98,8.31,1.68l8.05,2.11c2.78.74,3.99,1.1,4.52,1.28l6.18,2.02,3.81-5.27c2.95-4.07,4.32-5.78,4.95-6.51,1.66-1.9,3.87-4.88,3.86-8.74,0-3.87-1.47-9.49-8.43-14.24-3.61-2.45-7.69-4.54-12.12-6.19-4.23-1.58-8.32-2.75-12.17-3.48-4.94-.93-6.45-1.04-7.6-1.09-8.03.02-15.79.63-23.05,1.83-7.63,1.26-14.53,3.37-20.5,6.29-6.62,3.24-11.94,7.78-15.81,13.5-4,5.93-6.03,13.37-6.01,22.13.03,12.77,2.59,23.24,7.62,31.13,4.9,7.7,12.82,14.89,24.32,22.04,12.68,7.7,22.49,13.35,29.2,16.8-5.12,1.81-10.87,3.25-17.16,4.29-7.43,1.23-14.5,2.09-21.03,2.56-9.16.66-11.12.71-11.49.71-.17.04-1.08-.02-3.37-.51-2.95-.63-5.04-.94-6.62-.9-7.75.01-11.54,4.75-12.49,9.13-.46,2.08-.68,4.35-.68,6.95.02,11.31,5.55,16.88,10.17,19.56,5.21,3.03,11.92,4.5,20.51,4.5h.15c1.46,0,4.53-.09,9.1-.26,4.84-.17,10.49-.69,16.77-1.53,6.3-.84,13-2.11,19.91-3.77,7.25-1.74,14.02-4.13,20.11-7.11,6.52-3.18,12.05-7.22,16.43-12,5.18-5.65,7.79-12.4,7.78-20.07h0c-.01-7.2-2.41-13.68-7.12-19.27Z"/>
      </g>
    </g>
  </g>
</svg>
