<?xml version="1.0" encoding="UTF-8"?>
<svg xmlns="http://www.w3.org/2000/svg" viewBox="0 0 3335.1 1932.22">
  <defs>
    <style>
      .cls-1 {
        fill: #f1ece8;
      }

      .cls-2 {
        fill: #8f3833;
      }
    </style>
  </defs>
  <g id="LOGOTIPOS">
    <g>
      <g>
        <g>
          <g>
            <path class="cls-1" d="M1522.57,874.25c-.96-.76-2.3-1.02-3.44-.55-8.02,3.06-13.89,8.43-20.98,12.02-4.2,2.13-8.84,3.65-14.59,3.68-16.95.09-28.77-11.61-28.85-28.56-.12-22.81,42.42-51.73,42.33-67.19-.03-8.08-10.33-8.02-16.22-7.99-12.52.06-23.49,14.82-38.19,14.91-9.57.03-12.57-11.73-32.44-11.61-30.6-3.62-131.52,91.52-136.98,116.52-.06.29-.09.61-.06.93.44,27.51,26.75,30.28,48.72,30.17,44.9-.2,64.53-45.19,92.51-45.34,4.32-.03,6.54,2.77,9.39,5.63.12.15.26.26.38.35,9.1,7.24,37.49,11.44,49.19,11.38,4.26-.03,12.55-3.24,21.24-7.82,12.02-6.33,24.86-15.26,28.91-21.94.32-.53.47-1.14.47-1.72,0-1.08-.5-2.13-1.4-2.86ZM1320.19,896.86c0-4.11.61-8.23,1.87-12.34.18-.61.53-1.17.99-1.6,9.1-8.49,81.34-75.71,90.94-70.46,61,.53-90.59,136.45-93.8,84.4Z"/>
            <path class="cls-1" d="M1725.28,877.17c-.32-2.16-2.45-3.56-4.55-2.98-3.5,1.02-7.24,2.95-11.03,5.28-18.76,11.44-39.33,31.89-43.65-5.37-.03-.23-.06-.44-.03-.67.58-11.61,35.71-60.22,35.71-65.35-.03-8.84-8.14-10.27-14.76-10.24-25.76.15-33.7,34.78-43.15,52.49-18.23,33.2-64.39,78.33-104.88,78.54-8.81.06-13.27-10.24-13.3-17.59-4.52-50.03,82.07-90.27,50.38-117.4-.99-.85-2.33-1.17-3.56-.76-25.91,9.28-62.26,54.99-74.31,92.6-1.69,5.22-2.89,10.27-3.56,15.05-.7,5.34-.73,10.36.09,14.85.03.15.06.29.06.44.15,16.1,6.86,31.39,25.18,31.3,25.03-.12,88.92-25.47,106.49-42.48,5.13-5.19,12.43-19.96,19.78-19.98,4.43-.03,5.19,4.41,5.19,8.08-6.51,45.78,24.62,21.39,45.69,7.12,1.63-.99,7.47-4.32,13.45-7.96,7.44-4.58,15.14-9.66,15.14-11.32,0-1.08-.2-2.36-.38-3.65Z"/>
            <path class="cls-1" d="M1924.14,870.75c-.44.09-.88.26-1.25.5-1.46.93-3.09,1.93-4.87,3.01-32.73,19.61-116.38,61.18-119.3,45.95-.03-3.68,2.92-8.11,5.83-12.55,12.11-19.34,27.75-36.41,31.28-57.18.06-.26.09-.53.06-.79-.29-19.72-14.91-39.3-14.94-45.89.67-12.25-8.34-39.62-29.79-25.94-.32.2-.64.47-.9.79-14,16.89-21.33,48.43-37.58,63.05-6.16,7.35-28.36,26.11-42.97,37.78-4,3.18-7.41,5.83-9.77,7.59-.5.35-.88.82-1.14,1.37-2.36,5.13-.7,5.78,5.6,5.75,1.37,0,3.5-.76,6.13-2.04,9.89-4.9,26.87-17.5,37.87-26.87,16.95-14.56,41.87-44.55,52.66-15.73.18.47.26.99.23,1.46-1.14,13.07-31.6,63.16-45.92,84.87-7.29,11.09,2.36,26.49,27.37,26.37-2.04,5.02,84.87-40.41,128.63-69.41,23.46-15.52,34.51-26.34,12.78-22.09Z"/>
            <path class="cls-1" d="M2132.76,870.34c-.23.06-.5.18-.7.29-2.22,1.23-4.61,2.51-7.15,3.79-49.01,25.32-155.33,63.46-177.41,35.97-.67-.88-.93-2.07-.58-3.09,5.08-14.65,67.66-34.86,78.22-41.98,39.47-25.88,89.97-48.9,90.03-96.42,0-.29-.03-.58-.09-.88-6.36-31.48-68.79-12.25-93.39.9-36.32,19.2-84.02,62.17-103.69,105.32-2.86,6.21-5.11,12.43-6.65,18.58-1.14,4.49-1.9,8.96-2.25,13.33-.06.61.09,1.28.35,1.87,9.48,20.01,17.83,33.55,46.68,33.43.12,0,.23,0,.35.03,45.54,5.69,119.5-27.05,159.59-50.56,26.67-15.61,38.34-27.16,16.69-20.6ZM1959.61,862.73c101.29-133.01,213.82-80.41,11.06,5.83-18.35,7.44-11.06-5.83-11.06-5.83Z"/>
            <path class="cls-1" d="M2355.43,873c-.17.06-.35.15-.52.23,3.53-3.24-65.38,41.05-75.97,23.34-.35-.55-.47-1.23-.44-1.87,1.81-54.12,46.53-67.34,37.81-87.52-1.52-6.59-8.87-7.29-14.03-7.26-13.36-.41-15.81,12.2-21.88,11.87-1.37-.09-2.51-1.14-2.92-2.45-1.84-5.57-3.35-10.74-6.91-16.86-.44-.79-1.2-1.4-2.07-1.66-17.83-5.34-29.35,3.59-55.87,16.86-.06.03-.12.06-.18.09-26.55,15.17-67.42,38.19-87.52,66.66-3.73,5.31-6.77,10.82-8.84,16.51-2.19,5.86-3.3,11.96-3.15,18.21,0,.44.06.85.2,1.23,5.11,14.15,35.62,19.75,46.74,19.78.2,0,.35,0,.55-.03,16.1-2.01,64.42-33.78,81.66-52.4.15-.18.32-.32.5-.44,26.67-19.58,1.84,22.61,7.09,37.23.12.32.29.61.5.9,1.98,2.63,9.1,10.04,13.95,10.5.35.03.7,0,1.02-.06,26.75-5.25,60.39-18.67,87.85-40.58,1.9-1.52,3.79-3.09,5.63-4.7,4.99-5.05,3.01-10.04-3.18-7.59ZM2255.5,838.11c-.09.2-.2.41-.32.61-12.17,19.52-20.39,22.29-46.45,40.93-.18.15-.38.26-.58.35-13.01,5.78-42.6,27.66-53.56,17.71-.96-.88-1.34-2.22-1.05-3.5,3.27-14.73,45.45-48.08,64.18-57.77.06-.03.12-.06.18-.12,17.33-10.77,48.69-25.18,37.61,1.78Z"/>
            <path class="cls-1" d="M2644.34,953.52c-.06-.03-.12-.06-.17-.09-1.75-1.02-3.41-2.01-5.02-3.01-.06-.03-.12-.06-.17-.12-9.1-5.66-16.16-11.38-21.5-17.04-38.6-40.9,10.91-80.41,13.89-95.46.09-.38.09-.76.03-1.17-6.21-47.88-126.44,44.99-137.35,44-4.41.03-12.54-10.24-.85-24.3,11.29-13.54,11-16.75,10.91-24.21,0-.55-.12-1.14-.38-1.63-21.74-43.97-105.41,13.42-148.3,42.51-8.81,6.01-15.93,10.79-20.39,13.25-.47.23-.85.58-1.17.96-7.38,9.77,2.51,6.27,19.11-1.93,29.55-14.62,80.41-44.14,93.04-40.47,6.62-.03,11.82,3.62,11.85,13.92,0,3.71-13.19,10.39-13.19,12.57,2.95.73-43.21,43.65-43.15,51.76.09,17.8,9.04,16.25,14.27,16.1.35,0,.7-.06,1.02-.15,29.5-9.28,104.85-59.66,138.99-74.16,5.13-.03,2.22,2.22,4.41,2.92.06,8.11-10.94,14.79-10.91,22.87.03,4.11,1.75,8.61,4.76,13.25.26.41.52.82.82,1.23,14.35,20.92,53.24,44.7,76.88,51.46l.32-.03,15.4-1.28c-1.05-.58-2.1-1.17-3.12-1.75Z"/>
          </g>
          <path class="cls-1" d="M1433.71,331.16c-193.69,166-151.83,423.5-403.49,567.45-118.92,90.94-278.33,210.15-436.95,164.08-36.56-12.49-69.49-43.24-73.52-83.29-3.56-23.57,7.29-54.91,10.47-68.33.64-4.11,1.98-9.19-1.9-11.64-36.18.32-99.25,28.5-88.81,76.44,6.1,31.39,23.54,62.23,50.21,82.36,216.91,110.43,458.07-67.45,623-202.39,12.25-9.39,25.38-20.77,22.52-7.5-79.36,205.04-203.7,511.17-287.46,723.07-10.39,26.81-22.35,47.12,4.08,36.88,24.39-9.45,74.1-31.92,84.02-64.94,96.1-271.27,181-652.81,378.31-862.96,71.33-83.09,179.45-182.69,191.5-295.07,1.69-42.19-26.02-83.61-72-54.15ZM1273.74,687.21c-45.31,16.45,134.61-326.82,205.59-304.56,34.6,19.66-107.13,215.78-205.59,304.56Z"/>
        </g>
        <path class="cls-1" d="M2896.73,992.59c-482.78,86.74-976.26,12.28-1459.07,98.99-19.9.53-41.22-10.36-60.57-14.41-.61-.29-8.99-3.68-10.01-3.68,294.11-52.86,610.12-36.23,907.46-61.52,167.32-14.24,316.48,1.04,482.28-25.68-43.35-4.99-86.71-13.86-124.78-29.73-29.79-12.4-56.34-29.03-77.2-51.44-.41-.44-.82-.88-1.23-1.31.15.03.26.06.41.09,20.77,3.88,43.09,19.78,63.43,29.38,5.34,5.66,12.4,11.38,21.5,17.04.06.06.12.09.17.12,1.63,1.11,3.3,2.1,5.02,3.01.06.03.12.06.17.09,14.09,7.44,30.78,9.57,48.11,15.46,71.1,13.82,47.74,1.22,128.25,6.48,1.81-.32,48.84,6.68,65.96,13.42,0,.06,9.02,3.71,10.07,3.71Z"/>
      </g>
      <g>
        <g>
          <path class="cls-1" d="M1522.57,874.25c-.96-.76-2.3-1.02-3.44-.55-8.02,3.06-13.89,8.43-20.98,12.02-4.2,2.13-8.84,3.65-14.59,3.68-16.95.09-28.77-11.61-28.85-28.56-.12-22.81,42.42-51.73,42.33-67.19-.03-8.08-10.33-8.02-16.22-7.99-12.52.06-23.49,14.82-38.19,14.91-9.57.03-12.57-11.73-32.44-11.61-30.6-3.62-131.52,91.52-136.98,116.52-.06.29-.09.61-.06.93.44,27.51,26.75,30.28,48.72,30.17,44.9-.2,64.53-45.19,92.51-45.34,4.32-.03,6.54,2.77,9.39,5.63.12.15.26.26.38.35,9.1,7.24,37.49,11.44,49.19,11.38,4.26-.03,12.55-3.24,21.24-7.82,12.02-6.33,24.86-15.26,28.91-21.94.32-.53.47-1.14.47-1.72,0-1.08-.5-2.13-1.4-2.86ZM1320.19,896.86c0-4.11.61-8.23,1.87-12.34.18-.61.53-1.17.99-1.6,9.1-8.49,81.34-75.71,90.94-70.46,61,.53-90.59,136.45-93.8,84.4Z"/>
          <path class="cls-1" d="M1725.28,877.17c-.32-2.16-2.45-3.56-4.55-2.98-3.5,1.02-7.24,2.95-11.03,5.28-18.76,11.44-39.33,31.89-43.65-5.37-.03-.23-.06-.44-.03-.67.58-11.61,35.71-60.22,35.71-65.35-.03-8.84-8.14-10.27-14.76-10.24-25.76.15-33.7,34.78-43.15,52.49-18.23,33.2-64.39,78.33-104.88,78.54-8.81.06-13.27-10.24-13.3-17.59-4.52-50.03,82.07-90.27,50.38-117.4-.99-.85-2.33-1.17-3.56-.76-25.91,9.28-62.26,54.99-74.31,92.6-1.69,5.22-2.89,10.27-3.56,15.05-.7,5.34-.73,10.36.09,14.85.03.15.06.29.06.44.15,16.1,6.86,31.39,25.18,31.3,25.03-.12,88.92-25.47,106.49-42.48,5.13-5.19,12.43-19.96,19.78-19.98,4.43-.03,5.19,4.41,5.19,8.08-6.51,45.78,24.62,21.39,45.69,7.12,1.63-.99,7.47-4.32,13.45-7.96,7.44-4.58,15.14-9.66,15.14-11.32,0-1.08-.2-2.36-.38-3.65Z"/>
          <path class="cls-1" d="M1924.14,870.75c-.44.09-.88.26-1.25.5-1.46.93-3.09,1.93-4.87,3.01-32.73,19.61-116.38,61.18-119.3,45.95-.03-3.68,2.92-8.11,5.83-12.55,12.11-19.34,27.75-36.41,31.28-57.18.06-.26.09-.53.06-.79-.29-19.72-14.91-39.3-14.94-45.89.67-12.25-8.34-39.62-29.79-25.94-.32.2-.64.47-.9.79-14,16.89-21.33,48.43-37.58,63.05-6.16,7.35-28.36,26.11-42.97,37.78-4,3.18-7.41,5.83-9.77,7.59-.5.35-.88.82-1.14,1.37-2.36,5.13-.7,5.78,5.6,5.75,1.37,0,3.5-.76,6.13-2.04,9.89-4.9,26.87-17.5,37.87-26.87,16.95-14.56,41.87-44.55,52.66-15.73.18.47.26.99.23,1.46-1.14,13.07-31.6,63.16-45.92,84.87-7.29,11.09,2.36,26.49,27.37,26.37-2.04,5.02,84.87-40.41,128.63-69.41,23.46-15.52,34.51-26.34,12.78-22.09Z"/>
          <path class="cls-1" d="M2132.76,870.34c-.23.06-.5.18-.7.29-2.22,1.23-4.61,2.51-7.15,3.79-49.01,25.32-155.33,63.46-177.41,35.97-.67-.88-.93-2.07-.58-3.09,5.08-14.65,67.66-34.86,78.22-41.98,39.47-25.88,89.97-48.9,90.03-96.42,0-.29-.03-.58-.09-.88-6.36-31.48-68.79-12.25-93.39.9-36.32,19.2-84.02,62.17-103.69,105.32-2.86,6.21-5.11,12.43-6.65,18.58-1.14,4.49-1.9,8.96-2.25,13.33-.06.61.09,1.28.35,1.87,9.48,20.01,17.83,33.55,46.68,33.43.12,0,.23,0,.35.03,45.54,5.69,119.5-27.05,159.59-50.56,26.67-15.61,38.34-27.16,16.69-20.6ZM1959.61,862.73c101.29-133.01,213.82-80.41,11.06,5.83-18.35,7.44-11.06-5.83-11.06-5.83Z"/>
          <path class="cls-1" d="M2355.43,873c-.17.06-.35.15-.52.23,3.53-3.24-65.38,41.05-75.97,23.34-.35-.55-.47-1.23-.44-1.87,1.81-54.12,46.53-67.34,37.81-87.52-1.52-6.59-8.87-7.29-14.03-7.26-13.36-.41-15.81,12.2-21.88,11.87-1.37-.09-2.51-1.14-2.92-2.45-1.84-5.57-3.35-10.74-6.91-16.86-.44-.79-1.2-1.4-2.07-1.66-17.83-5.34-29.35,3.59-55.87,16.86-.06.03-.12.06-.18.09-26.55,15.17-67.42,38.19-87.52,66.66-3.73,5.31-6.77,10.82-8.84,16.51-2.19,5.86-3.3,11.96-3.15,18.21,0,.44.06.85.2,1.23,5.11,14.15,35.62,19.75,46.74,19.78.2,0,.35,0,.55-.03,16.1-2.01,64.42-33.78,81.66-52.4.15-.18.32-.32.5-.44,26.67-19.58,1.84,22.61,7.09,37.23.12.32.29.61.5.9,1.98,2.63,9.1,10.04,13.95,10.5.35.03.7,0,1.02-.06,26.75-5.25,60.39-18.67,87.85-40.58,1.9-1.52,3.79-3.09,5.63-4.7,4.99-5.05,3.01-10.04-3.18-7.59ZM2255.5,838.11c-.09.2-.2.41-.32.61-12.17,19.52-20.39,22.29-46.45,40.93-.18.15-.38.26-.58.35-13.01,5.78-42.6,27.66-53.56,17.71-.96-.88-1.34-2.22-1.05-3.5,3.27-14.73,45.45-48.08,64.18-57.77.06-.03.12-.06.18-.12,17.33-10.77,48.69-25.18,37.61,1.78Z"/>
          <path class="cls-1" d="M2644.34,953.52c-.06-.03-.12-.06-.17-.09-1.75-1.02-3.41-2.01-5.02-3.01-.06-.03-.12-.06-.17-.12-9.1-5.66-16.16-11.38-21.5-17.04-38.6-40.9,10.91-80.41,13.89-95.46.09-.38.09-.76.03-1.17-6.21-47.88-126.44,44.99-137.35,44-4.41.03-12.54-10.24-.85-24.3,11.29-13.54,11-16.75,10.91-24.21,0-.55-.12-1.14-.38-1.63-21.74-43.97-105.41,13.42-148.3,42.51-8.81,6.01-15.93,10.79-20.39,13.25-.47.23-.85.58-1.17.96-7.38,9.77,2.51,6.27,19.11-1.93,29.55-14.62,80.41-44.14,93.04-40.47,6.62-.03,11.82,3.62,11.85,13.92,0,3.71-13.19,10.39-13.19,12.57,2.95.73-43.21,43.65-43.15,51.76.09,17.8,9.04,16.25,14.27,16.1.35,0,.7-.06,1.02-.15,29.5-9.28,104.85-59.66,138.99-74.16,5.13-.03,2.22,2.22,4.41,2.92.06,8.11-10.94,14.79-10.91,22.87.03,4.11,1.75,8.61,4.76,13.25.26.41.52.82.82,1.23,14.35,20.92,53.24,44.7,76.88,51.46l.32-.03,15.4-1.28c-1.05-.58-2.1-1.17-3.12-1.75Z"/>
        </g>
        <path class="cls-1" d="M1433.71,331.16c-193.69,166-151.83,423.5-403.49,567.45-118.92,90.94-278.33,210.15-436.95,164.08-36.56-12.49-69.49-43.24-73.52-83.29-3.56-23.57,7.29-54.91,10.47-68.33.64-4.11,1.98-9.19-1.9-11.64-36.18.32-99.25,28.5-88.81,76.44,6.1,31.39,23.54,62.23,50.21,82.36,216.91,110.43,458.07-67.45,623-202.39,12.25-9.39,25.38-20.77,22.52-7.5-79.36,205.04-203.7,511.17-287.46,723.07-10.39,26.81-22.35,47.12,4.08,36.88,24.39-9.45,74.1-31.92,84.02-64.94,96.1-271.27,181-652.81,378.31-862.96,71.33-83.09,179.45-182.69,191.5-295.07,1.69-42.19-26.02-83.61-72-54.15ZM1273.74,687.21c-45.31,16.45,134.61-326.82,205.59-304.56,34.6,19.66-107.13,215.78-205.59,304.56Z"/>
      </g>
    </g>
  </g>
</svg>
